<svg width="64" height="62" viewBox="0 0 64 62" fill="none" xmlns="http://www.w3.org/2000/svg">
<path d="M8.80366 53.1318H0V61.9355H8.80366V53.1318Z" fill="#BAD1FF"/>
<path d="M19.6679 53.1318H10.8633V61.9355H19.6679V53.1318Z" fill="#BAD1FF"/>
<path d="M30.5312 53.1318H21.7275V61.9355H30.5312V53.1318Z" fill="#BAD1FF"/>
<path d="M41.3945 53.1318H32.5898V61.9355H41.3945V53.1318Z" fill="#BAD1FF"/>
<path d="M52.2568 53.1318H43.4541V61.9355H52.2568V53.1318Z" fill="#BAD1FF"/>
<path d="M8.80366 42.6023H0V51.406H8.80366V42.6023Z" fill="#BAD1FF"/>
<path d="M19.6679 42.6023H10.8633V51.406H19.6679V42.6023Z" fill="#BAD1FF"/>
<path d="M30.5312 42.6023H21.7275V51.406H30.5312V42.6023Z" fill="#BAD1FF"/>
<path d="M41.3945 42.6023H32.5898V51.406H41.3945V42.6023Z" fill="#BAD1FF"/>
<path d="M52.2568 42.6023H43.4541V51.406H52.2568V42.6023Z" fill="#BAD1FF"/>
<path d="M0 40.8754H8.80366V32.0718H0V40.8754ZM0.379064 32.4508H8.42364V40.4964H0.379064V32.4508Z" fill="#558DFD"/>
<path d="M19.6679 32.0718H10.8633V40.8754H19.6679V32.0718Z" fill="#BAD1FF"/>
<path d="M30.5312 32.0718H21.7275V40.8754H30.5312V32.0718Z" fill="#BAD1FF"/>
<path d="M41.3945 32.0718H32.5898V40.8754H41.3945V32.0718Z" fill="#BAD1FF"/>
<path d="M52.2568 32.0718H43.4541V40.8754H52.2568V32.0718Z" fill="#BAD1FF"/>
<path d="M0 30.3449H8.80366V21.5413H0V30.3449ZM0.379064 21.9203H8.42364V29.9649H0.379064V21.9203Z" fill="#558DFD"/>
<path d="M10.8633 30.3449H19.6679V21.5413H10.8633V30.3449ZM11.2433 21.9203H19.2879V29.9649H11.2433V21.9203Z" fill="#558DFD"/>
<path d="M30.5312 21.5413H21.7275V30.3449H30.5312V21.5413Z" fill="#BAD1FF"/>
<path d="M41.3945 21.5413H32.5898V30.3449H41.3945V21.5413Z" fill="#BAD1FF"/>
<path d="M43.4541 30.3449H52.2568V21.5413H43.4541V30.3449ZM43.8332 21.9203H51.8787V29.9649H43.8332V21.9203Z" fill="#558DFD"/>
<path d="M0 19.8144H8.80366V11.0107H0V19.8144ZM0.379064 11.3898H8.42364V19.4344H0.379064V11.3898Z" fill="#558DFD"/>
<path d="M10.8633 19.8144H19.6679V11.0107H10.8633V19.8144ZM11.2433 11.3898H19.2879V19.4344H11.2433V11.3898Z" fill="#558DFD"/>
<path d="M30.5312 11.0107H21.7275V19.8144H30.5312V11.0107Z" fill="#BAD1FF"/>
<path d="M32.5898 19.8144H41.3945V11.0107H32.5898V19.8144ZM32.9699 11.3898H41.0144V19.4344H32.9699V11.3898Z" fill="#558DFD"/>
<path d="M43.4541 11.0107V19.8144H52.2568V11.0107H43.4541ZM51.8787 19.4344H43.8332V11.3898H51.8787V19.4344Z" fill="#558DFD"/>
<path d="M63.6888 19.8911L58.2656 14.4701V6.79971C58.2656 6.21181 57.7885 5.73468 57.2006 5.73468H49.5302L44.107 0.311523C43.6917 -0.103841 43.0164 -0.103841 42.6011 0.311523L37.1801 5.73468H29.5097C28.9218 5.73468 28.4446 6.21181 28.4446 6.79971V14.4701L23.0215 19.8932C22.6061 20.3086 22.6061 20.9838 23.0215 21.3992L28.4446 26.8202V34.4906C28.4446 35.0785 28.9218 35.5556 29.5097 35.5556H37.1801L42.6032 40.9788C43.0186 41.3942 43.6938 41.3942 44.1092 40.9788L49.5302 35.5556H57.2006C57.7885 35.5556 58.2656 35.0785 58.2656 34.4906V26.8202L63.6888 21.3971C64.1041 20.9817 64.1041 20.3086 63.6888 19.8911ZM43.3551 29.1654C38.6498 29.1654 34.8348 25.3505 34.8348 20.6452C34.8348 15.9398 38.6498 12.1249 43.3551 12.1249C48.0604 12.1249 51.8754 15.9398 51.8754 20.6452C51.8754 25.3505 48.0604 29.1654 43.3551 29.1654Z" fill="#568EFF"/>
</svg>
