<svg width="67" height="64" viewBox="0 0 67 64" fill="none" xmlns="http://www.w3.org/2000/svg">
<rect y="17.168" width="46.8318" height="46.8318" fill="#BAD1FF"/>
<path d="M64.158 5.37859C64.3423 4.98125 64.4459 4.53907 64.4459 4.07307V3.11467C64.4459 1.39722 63.0487 0 61.3312 0C59.6138 0 58.2165 1.39722 58.2165 3.11467C58.2547 3.80162 58.0891 4.48309 58.5044 5.37859C54.8724 7.53842 56.0338 11.5776 55.8207 12.9377H66.8417C66.6266 11.565 67.7913 7.53918 64.158 5.37859ZM59.6541 3.11467C59.6541 2.18988 60.4064 1.43755 61.3312 1.43755C62.256 1.43755 63.0083 2.18988 63.0083 3.11467V4.07307C63.0083 4.99786 62.256 5.75019 61.3312 5.75019C60.4064 5.75019 59.6541 4.99786 59.6541 4.07307V3.11467ZM65.4042 11.5002H57.2582C57.3567 10.9931 56.6675 7.98204 59.4072 6.51962C60.529 7.4037 62.1163 7.41714 63.2552 6.51962C65.9825 7.97541 65.3143 11.0372 65.4042 11.5002Z" fill="#568EFF"/>
<path d="M26.3025 5.37859C26.7206 4.47713 26.5523 3.80075 26.5904 3.11467C26.5904 1.39722 25.1932 0 23.4757 0C21.7583 0 20.3611 1.39722 20.3611 3.11467C20.3992 3.80162 20.2336 4.48309 20.6489 5.37859C17.017 7.53842 18.1783 11.5776 17.9652 12.9377H28.9862C28.7712 11.565 29.9358 7.53918 26.3025 5.37859ZM21.7986 3.11467C21.7986 2.18988 22.5509 1.43755 23.4757 1.43755C24.4005 1.43755 25.1528 2.18988 25.1528 3.11467V4.07307C25.1528 4.99786 24.4005 5.75019 23.4757 5.75019C22.5509 5.75019 21.7986 4.99786 21.7986 4.07307V3.11467ZM27.5487 11.5002H19.4027C19.5012 10.9931 18.812 7.98204 21.5517 6.51962C22.0819 6.93741 22.7499 7.18765 23.4757 7.18765C24.2016 7.18765 24.8696 6.93741 25.3997 6.51962C28.127 7.97541 27.4588 11.0372 27.5487 11.5002Z" fill="#568EFF"/>
<path d="M64.158 41.6042C64.5761 40.7027 64.4079 40.0262 64.4459 39.3403C64.4459 37.6229 63.0487 36.2256 61.3312 36.2256C59.6138 36.2256 58.2165 37.6228 58.2165 39.3403V40.2986C58.2165 40.7647 58.3201 41.2067 58.5044 41.6042C54.8724 43.764 56.0338 47.8032 55.8207 49.1633H66.8417C66.6266 47.7907 67.7913 43.7648 64.158 41.6042ZM59.6541 39.3403C59.6541 38.4155 60.4064 37.6631 61.3312 37.6631C62.256 37.6631 63.0083 38.4155 63.0083 39.3403V40.2986C63.0083 41.2233 62.256 41.9757 61.3312 41.9757C60.4064 41.9757 59.6541 41.2233 59.6541 40.2986V39.3403ZM65.4042 47.7258H57.2582C57.3567 47.2187 56.6675 44.2076 59.4072 42.7452C60.5294 43.6296 62.1167 43.6424 63.2552 42.7452C65.9825 44.2011 65.3143 47.2628 65.4042 47.7258Z" fill="#568EFF"/>
<path d="M26.3031 41.6042C26.4874 41.2068 26.591 40.7647 26.591 40.2986V39.3403C26.591 37.6229 25.1938 36.2256 23.4763 36.2256C21.7589 36.2256 20.3617 37.6228 20.3617 39.3403V40.2986C20.3617 40.7647 20.4653 41.2067 20.6495 41.6042C18.9959 42.5875 17.9658 44.3652 17.9658 46.3361V49.1633H28.9869C28.7718 47.7907 29.9364 43.7648 26.3031 41.6042ZM21.7992 39.3403C21.7992 38.4155 22.5516 37.6631 23.4763 37.6631C24.4011 37.6631 25.1535 38.4155 25.1535 39.3403V40.2986C25.1535 41.2233 24.4011 41.9757 23.4763 41.9757C22.5516 41.9757 21.7992 41.2233 21.7992 40.2986V39.3403ZM27.5493 47.7258H19.4034V46.3361C19.4034 44.8147 20.2338 43.449 21.5523 42.7452C22.6746 43.6296 24.2618 43.6424 25.4003 42.7452C28.1277 44.2011 27.4594 47.2628 27.5493 47.7258Z" fill="#568EFF"/>
<path d="M63.3164 15.3911C63.497 15.8157 63.6669 16.2523 63.8211 16.6888L65.1764 16.2097C65.0122 15.7452 64.8314 15.2804 64.6391 14.8284L63.3164 15.3911Z" fill="#568EFF"/>
<path d="M64.1447 34.8498C66.3508 30.3036 67.0069 25.2881 66.2626 20.5142L64.8423 20.7357C65.5344 25.1747 64.9486 29.9005 62.8516 34.2222L64.1447 34.8498Z" fill="#568EFF"/>
<path d="M65.9888 19.0582C65.8831 18.5768 65.7613 18.0934 65.6265 17.6213L64.2441 18.0158C64.3708 18.4594 64.4853 18.9139 64.5847 19.3664L65.9888 19.0582Z" fill="#568EFF"/>
<path d="M20.0785 14.8123C18.0808 19.5018 17.7003 24.5894 18.6587 29.2346L20.0666 28.9441C19.1708 24.6026 19.5118 19.8102 21.4011 15.3757L20.0785 14.8123Z" fill="#568EFF"/>
<path d="M20.7965 31.6313C20.6483 31.1945 20.5115 30.7463 20.3903 30.2993L19.0029 30.6759C19.1321 31.1516 19.2776 31.6285 19.4354 32.0934L20.7965 31.6313Z" fill="#568EFF"/>
<path d="M21.8521 34.2076C21.6506 33.7916 21.4595 33.3637 21.2842 32.936L19.9541 33.4811C20.1406 33.9363 20.3439 34.3915 20.5583 34.8342L21.8521 34.2076Z" fill="#568EFF"/>
<path d="M33.1166 3.47882L32.533 2.16504C32.0841 2.36448 31.635 2.58082 31.1982 2.8082L31.8619 4.08328C32.2725 3.86953 32.6946 3.66616 33.1166 3.47882Z" fill="#568EFF"/>
<path d="M55.2529 5.53161L56.0698 4.34871C49.3695 -0.278505 41.0015 -1.03305 33.9053 1.60555L34.4063 2.95293C41.0523 0.481606 48.9287 1.16413 55.2529 5.53161Z" fill="#568EFF"/>
<path d="M30.6469 4.76415L29.9055 3.53247C29.4987 3.77733 29.0936 4.03803 28.7012 4.30727L29.5145 5.49257C29.8835 5.23946 30.2645 4.99441 30.6469 4.76415Z" fill="#568EFF"/>
<path d="M31.3488 44.2297L30.6523 45.4872C36.0329 48.4671 42.4589 49.2697 48.4475 47.7232L48.088 46.3314C42.4634 47.784 36.4152 47.0356 31.3488 44.2297Z" fill="#568EFF"/>
<path d="M49.4258 45.9415L49.8707 47.3085C50.3381 47.1564 50.8072 46.9875 51.2649 46.8065L50.7363 45.4697C50.306 45.6398 49.8652 45.7985 49.4258 45.9415Z" fill="#568EFF"/>
<path d="M52.0146 44.9176L52.6253 46.219C53.0708 46.01 53.5153 45.7844 53.9464 45.5485L53.2565 44.2874C52.8511 44.5091 52.4333 44.7211 52.0146 44.9176Z" fill="#568EFF"/>
<path d="M42.3558 7.76245C33.2402 7.76245 25.8242 15.1784 25.8242 24.294C25.8242 33.4096 33.2402 40.8256 42.3558 40.8256C51.4714 40.8256 58.8874 33.4096 58.8874 24.294C58.8874 15.1784 51.4714 7.76245 42.3558 7.76245ZM37.5983 9.96885C36.856 10.7215 36.1705 11.6581 35.5597 12.7656C35.1919 13.4325 34.8599 14.1463 34.5651 14.899C33.7296 14.3936 32.9388 13.804 32.2034 13.1339C33.7449 11.7305 35.5774 10.6417 37.5983 9.96885ZM31.1867 14.1514C32.0806 14.9726 33.0502 15.6847 34.0791 16.2817C33.384 18.4991 32.9872 20.9848 32.9251 23.5752H27.2792C27.4498 19.9568 28.8998 16.6675 31.1867 14.1514ZM27.2792 25.0127H32.9251C32.9918 27.7946 33.4451 30.4553 34.2386 32.7929C33.2621 33.3445 32.3375 33.9982 31.4795 34.7489C29.0243 32.1957 27.457 28.7832 27.2792 25.0127ZM32.5289 35.7414C33.2268 35.1417 33.9718 34.6117 34.7548 34.1543C35.0004 34.7369 35.2686 35.2946 35.5597 35.8224C36.1705 36.93 36.856 37.8666 37.5983 38.6192C35.7177 37.993 34.0005 37.0064 32.5289 35.7414ZM41.6371 39.3252C39.8452 39.0155 38.156 37.5531 36.8186 35.1282C36.5334 34.6112 36.2717 34.0626 36.0335 33.4876C37.781 32.6809 39.6782 32.2135 41.6372 32.1215V39.3252H41.6371ZM41.6371 30.6831C39.5055 30.7745 37.4391 31.2708 35.5329 32.135C34.83 29.9937 34.4268 27.5618 34.3629 25.0127H41.6371V30.6831ZM41.6371 23.5752H34.3629C34.4219 21.2246 34.7696 18.9737 35.3746 16.9583C37.3211 17.8661 39.4404 18.3864 41.6371 18.4798V23.5752ZM41.6371 17.0414C39.6002 16.9466 37.6374 16.4492 35.8398 15.5877C36.1273 14.8334 36.4539 14.1209 36.8186 13.4597C38.156 11.0348 39.8452 9.57247 41.6371 9.2627V17.0414ZM57.4323 23.5752H51.7865C51.7244 20.9848 51.3275 18.4991 50.6325 16.2817C51.6614 15.6847 52.6309 14.9725 53.5249 14.1514C55.8118 16.6675 57.2618 19.9568 57.4323 23.5752ZM52.5081 13.1339C51.7727 13.804 50.9818 14.3936 50.1464 14.899C49.8516 14.1463 49.5196 13.4325 49.1518 12.7656C48.541 11.6581 47.8555 10.7215 47.1132 9.96885C49.1342 10.6417 50.9667 11.7305 52.5081 13.1339ZM43.0745 9.2627C44.8664 9.57247 46.5556 11.0349 47.893 13.4597C48.2576 14.1209 48.5842 14.8334 48.8718 15.5877C47.0742 16.4492 45.1113 16.9466 43.0745 17.0414V9.2627ZM43.0745 18.4798C45.2712 18.3864 47.3905 17.8661 49.337 16.9583C49.942 18.9738 50.2898 21.2246 50.3487 23.5752H43.0745V18.4798ZM43.0745 25.0127H50.3487C50.2848 27.5617 49.8816 29.9937 49.1786 32.135C47.2724 31.2708 45.2061 30.7745 43.0745 30.6831V25.0127ZM43.0745 39.3252V32.1215C45.0334 32.2135 46.9306 32.6809 48.6782 33.4876C48.4399 34.0626 48.1782 34.6112 47.8931 35.1282C46.5557 37.5531 44.8664 39.0155 43.0745 39.3252ZM47.1133 38.6192C48.0943 37.6245 49.1057 36.1734 49.9568 34.1543C50.7398 34.6117 51.4848 35.1418 52.1827 35.7414C50.7111 37.0064 48.9939 37.993 47.1133 38.6192ZM53.232 34.7489C52.3741 33.9982 51.4495 33.3445 50.4729 32.7929C51.2664 30.4552 51.7198 27.7946 51.7865 25.0127H57.4323C57.2546 28.7832 55.6873 32.1957 53.232 34.7489Z" fill="#568EFF"/>
</svg>
