<svg width="62" height="55" viewBox="0 0 62 55" fill="none" xmlns="http://www.w3.org/2000/svg">
<path d="M52.0138 25.1593V54.7414H1.70572H1.29777H0.899176V12.584H0L1.29871 9.33812L2.59648 12.584H1.70665V36.1198L11.8699 27.2543L18.8902 30.8426L33.1985 15.0036L43.8445 20.6784L52.0138 6.9353V15.0036V25.1593ZM51.2718 25.0209V24.0936L50.4372 24.9282L49.4173 25.949L48.2113 27.1448L47.1914 28.1741L45.9853 29.3708L44.9654 30.3907L43.7594 31.5958L42.7395 32.6166L41.5334 33.8311L40.5135 34.8416L40.3283 35.0269L40.9215 35.3703L42.0901 34.2016L43.11 33.1818L44.3161 31.9757L45.336 30.9558L46.542 29.7507L47.5619 28.7298L48.768 27.5247L49.7879 26.5048L50.994 25.2987L51.2718 25.0209ZM51.2718 22.7949V21.8677L50.4372 22.7023L49.4173 23.7137L48.2113 24.9282L47.1914 25.949L45.9853 27.1448L44.9654 28.1741L43.7594 29.3708L42.7395 30.3907L41.5334 31.5958L40.5135 32.6166L39.3074 33.8311L38.9276 34.2016L39.5124 34.545L39.8642 34.2016L40.884 33.1818L42.0901 31.9757L43.11 30.9558L44.3161 29.7507L45.336 28.7298L46.542 27.5247L47.5619 26.5048L48.768 25.2987L49.7879 24.2789L50.994 23.0728L51.2718 22.7949ZM51.2718 20.5689V19.6417L50.4372 20.4679L49.4173 21.4878L48.2113 22.7023L47.1914 23.7137L45.9853 24.9282L44.9654 25.949L44.2141 26.6901L46.8106 22.7958L47.5619 22.0539L48.768 20.8487L49.7879 19.8279L50.994 18.6228L51.2718 18.3439V17.4176L50.4372 18.2429L49.4173 19.2628L48.6754 20.0047L51.2718 16.1198V9.63751L44.4742 21.0621L44.113 21.674L43.4918 21.3399L33.365 15.9346L19.446 31.3376L19.0661 31.7642L18.5562 31.505L11.9906 28.1479L1.70665 37.0872V46.1389L12.3246 35.9195L12.6764 35.9757L12.6025 36.0589L11.5826 37.0788L10.3766 38.2746L9.35669 39.3048L8.15154 40.5006L7.13166 41.5214L5.92558 42.7265L4.90571 43.7464L3.70056 44.9618L2.68068 45.9724L1.70665 46.9464V47.883L2.03133 47.5574L3.0512 46.5375L4.25728 45.3324L5.27717 44.3115L6.48324 43.1064L7.50313 42.0865L8.7092 40.8805L9.72908 39.8606L10.9352 38.6554L11.955 37.6346L13.1611 36.4295L13.4942 36.0954L14.6161 36.2629L13.8095 37.0788L12.6044 38.2746L11.5845 39.3048L10.3784 40.5006L9.35856 41.5214L8.15341 42.7265L7.13353 43.7464L5.92745 44.9618L4.90758 45.9724L3.70243 47.1878L2.68255 48.2077L1.70852 49.1714V50.108L2.0332 49.7833L3.05309 48.7635L4.25915 47.5574L5.27904 46.5375L6.48512 45.3324L7.505 44.3115L8.71107 43.1064L9.73095 42.0865L10.937 40.8805L11.9569 39.8606L13.163 38.6554L14.1829 37.6346L15.3889 36.4295L15.4264 36.3827L16.5576 36.5502L16.0383 37.0779L14.8322 38.2737L13.8123 39.3039L12.6072 40.4996L11.5873 41.5204L10.3812 42.7256L9.36136 43.7455L8.15622 44.9609L7.13635 45.9714L5.93027 47.1869L4.91038 48.2067L3.70524 49.4025L3.27858 49.8292L5.58781 48.4472L6.48699 47.5564L7.50687 46.5366L8.71294 45.3314L9.73282 44.3106L10.9389 43.1055L11.9588 42.0856L13.1649 40.8795L14.1847 39.8596L15.3908 38.6545L16.4107 37.6337L17.366 36.6699L18.4972 36.8365L18.2652 37.0779L17.06 38.2737L16.0402 39.3039L14.8341 40.4996L13.8142 41.5204L12.6091 42.7256L11.5892 43.7455L10.3831 44.9609L9.36323 45.9714L8.8168 46.5281L11.126 45.1462L11.9606 44.3106L13.1667 43.1055L14.1866 42.0856L15.3927 40.8795L16.4126 39.8596L17.6186 38.6545L18.6385 37.6337L19.3066 36.9656H19.3524L25.8628 31.7081L24.9449 32.6176L23.7388 33.832L22.719 34.8426L21.5138 36.058L20.494 37.0779L19.2879 38.2737L18.268 39.3039L17.0629 40.4996L16.043 41.5204L14.8369 42.7256L13.817 43.7455L12.7045 44.858L13.3632 45.1368L14.1885 44.3106L15.3945 43.1055L16.4144 42.0856L17.6205 40.8795L18.6404 39.8596L19.8465 38.6545L20.8663 37.6337L22.0715 36.4285L23.0914 35.4077L24.2974 34.2026L25.3173 33.1827L26.5225 31.9766L27.5423 30.9567L28.7484 29.7516L29.7683 28.7308L30.7143 27.7848L33.2088 25.7638L33.932 25.8648L33.8488 25.949L32.6427 27.1448L31.6228 28.1741L30.4167 29.3708L29.3968 30.3907L28.1908 31.5958L27.1709 32.6166L25.9657 33.8311L24.9459 34.8416L23.7398 36.0571L22.7199 37.077L21.5148 38.2727L20.4949 39.3029L19.2888 40.4987L18.2689 41.5195L17.0638 42.7246L16.0439 43.7445L14.8378 44.96L14.2727 45.5167L14.922 45.7946L15.3945 45.3314L16.4144 44.3106L17.6205 43.1055L18.6404 42.0856L19.8465 40.8795L20.8663 39.8596L22.0715 38.6545L23.0914 37.6337L24.2974 36.4285L25.3173 35.4077L26.5225 34.2026L27.5423 33.1827L28.7484 31.9766L29.7683 30.9567L30.9734 29.7516L31.9933 28.7308L33.1994 27.5256L34.2193 26.5058L34.747 25.9771L35.8782 26.1343L34.8668 27.1458L33.8469 28.175L32.6408 29.3717L31.6209 30.3916L30.4149 31.5968L29.395 32.6176L28.1889 33.832L27.169 34.8426L25.9639 36.058L24.944 37.0779L23.7379 38.2737L22.718 39.3039L21.5129 40.4996L20.493 41.5204L19.2869 42.7256L18.2671 43.7455L17.0619 44.9609L16.042 45.9714L15.8287 46.1848L16.4874 46.4636L17.6186 45.3324L18.6385 44.3115L19.8446 43.1064L20.8645 42.0865L22.0696 40.8805L23.0895 39.8606L24.2956 38.6554L25.3155 37.6346L26.5206 36.4295L27.5405 35.4086L28.7465 34.2035L29.7664 33.1836L30.9716 31.9776L31.9914 30.9577L33.1975 29.7525L34.2174 28.7317L35.4225 27.5266L36.4424 26.5067L36.6932 26.255L37.8338 26.4131L37.0918 27.1458L36.0719 28.175L34.8658 29.3717L33.8459 30.3916L33.3267 30.9109L33.9114 31.2543L34.2174 30.9577L35.4225 29.7525L36.4424 28.7317L37.6485 27.5266L38.6412 26.5254L39.7818 26.6826L39.3177 27.1467L38.2979 28.1759L37.0918 29.3727L36.0719 30.3925L34.8658 31.5977L34.7273 31.7362L35.3206 32.0795L35.4225 31.9776L36.4424 30.9577L37.6485 29.7525L38.6684 28.7317L39.8735 27.5266L40.5968 26.8033L41.728 26.9614L41.5428 27.1467L40.5229 28.1759L39.3168 29.3727L38.2969 30.3925L37.0908 31.5977L36.1355 32.5623L36.7203 32.9048L37.6476 31.9776L38.6674 30.9577L39.8726 29.7525L40.8925 28.7317L42.0985 27.5266L42.5439 27.0728L43.6845 27.23L42.7479 28.1759L41.5418 29.3727L40.5219 30.3925L39.3159 31.5977L38.296 32.6185L37.5353 33.3792L38.1201 33.7216L38.6674 33.1846L39.8726 31.9785L40.8925 30.9586L42.0985 29.7535L43.1184 28.7327L44.3245 27.5275L45.3444 26.5076L46.5505 25.3016L47.5703 24.2817L48.7764 23.0756L49.7963 22.0557L51.0024 20.8506L51.2718 20.5689ZM48.7502 29.7684L51.0127 26.5694L50.4382 27.1439L49.4183 28.1731L48.2122 29.3699L47.1923 30.3897L45.9862 31.5949L44.9664 32.6157L43.7603 33.8302L42.7404 34.8407L41.7383 35.8521L42.3231 36.1946L43.1109 35.4058L44.317 34.2007L45.3369 33.1808L46.543 31.9748L47.5629 30.9549L48.7502 29.7684ZM43.6396 36.9637L45.5877 34.2185L44.9664 34.8398L43.7603 36.0552L43.139 36.6671L43.6396 36.9637ZM28.7288 36.4267L32.4471 31.7895L31.6125 32.6157L30.4064 33.8302L29.3866 34.8407L28.1805 36.0561L27.1606 37.076L25.9554 38.2718L24.9356 39.302L23.7295 40.4978L22.7096 41.5186L21.5045 42.7237L20.4846 43.7436L19.2785 44.959L18.2586 45.9696L17.3866 46.8416L18.0453 47.1195L18.6292 46.5356L19.8352 45.3305L20.8551 44.3097L22.0603 43.1045L23.0801 42.0846L24.2862 40.8786L25.3061 39.8587L26.5112 38.6536L27.5311 37.6327L28.7288 36.4267ZM19.8352 47.5452L23.5536 42.8996L22.7096 43.7427L21.5045 44.9581L20.4846 45.9686L19.2785 47.1841L18.9538 47.4994L19.6023 47.7773L19.8343 47.5546V47.5452H19.8352Z" fill="#BAD1FF"/>
<path d="M51.2718 24.0935V25.0208L50.9939 25.2986L49.7878 26.5047L48.7679 27.5246L47.5618 28.7297L46.5429 29.7506L45.3368 30.9557L44.3169 31.9746L43.1109 33.1817L42.091 34.2006L40.9223 35.3692L40.3291 35.0259L40.5144 34.8406L41.5352 33.8301L42.7403 32.6156L43.7602 31.5948L44.9663 30.3896L45.9862 29.3698L47.1922 28.173L48.2112 27.1438L49.4173 25.948L50.4371 24.9272L51.2718 24.0935Z" fill="#BAD1FF"/>
<path d="M51.2721 21.8677V22.7949L50.9942 23.0728L49.7881 24.2789L48.7682 25.2988L47.5621 26.5048L46.5432 27.5247L45.3371 28.7299L44.3172 29.7507L43.1112 30.9558L42.0913 31.9748L40.8861 33.1818L39.8653 34.2007L39.5135 34.5451L38.9287 34.2007L39.3095 33.8302L40.5147 32.6157L41.5355 31.5949L42.7406 30.3897L43.7605 29.3699L44.9666 28.1732L45.9865 27.1439L47.1925 25.9481L48.2115 24.9273L49.4176 23.7128L50.4374 22.7013L51.2721 21.8677Z" fill="#BAD1FF"/>
<path d="M51.2722 19.6418V20.569L50.9943 20.8479L49.7882 22.053L48.7683 23.0729L47.5622 24.279L46.5433 25.2988L45.3372 26.5049L44.3173 27.5248L43.1113 28.7299L42.0914 29.7507L40.8862 30.9559L39.8654 31.9748L38.6603 33.1819L38.1129 33.7189L37.5291 33.3765L38.2898 32.6158L39.3096 31.595L40.5148 30.3898L41.5356 29.3699L42.7407 28.1732L43.6773 27.2272L42.5368 27.0701L42.0914 27.5248L40.8862 28.7299L39.8654 29.7507L38.6603 30.9559L37.6404 31.9748L36.7132 32.903L36.1284 32.5596L37.0837 31.595L38.2898 30.3898L39.3096 29.3699L40.5148 28.1732L41.5356 27.144L41.7209 26.9587L40.5887 26.8006L39.8654 27.5248L38.6603 28.7299L37.6404 29.7507L36.4343 30.9559L35.4145 31.9748L35.3125 32.0777L34.7192 31.7344L34.8577 31.595L36.0638 30.3898L37.0837 29.3699L38.2898 28.1732L39.3096 27.144L39.7728 26.6799L38.6331 26.5227L37.6404 27.5248L36.4343 28.7299L35.4145 29.7507L34.2093 30.9559L33.9034 31.2525L33.3186 30.9091L33.8388 30.3898L34.8577 29.3699L36.0638 28.1732L37.0837 27.144L37.8257 26.4113L36.6851 26.2532L36.4343 26.5049L35.4145 27.5248L34.2093 28.7299L33.1894 29.7507L31.9834 30.9559L30.9635 31.9748L29.7583 33.1819L28.7375 34.2008L27.5324 35.4059L26.5116 36.4267L25.3064 37.6319L24.2865 38.6527L23.0805 39.8578L22.0606 40.8777L20.8554 42.0838L19.8356 43.1037L18.6295 44.3088L17.6096 45.3297L16.4784 46.4609L15.8197 46.182L16.033 45.9696L17.0538 44.9582L18.259 43.7437L19.2788 42.7238L20.4849 41.5186L21.5048 40.4979L22.7099 39.3021L23.7298 38.2719L24.9359 37.0761L25.9558 36.0562L27.1609 34.8408L28.1817 33.8303L29.3869 32.6158L30.4068 31.595L31.6128 30.3898L32.6327 29.3699L33.8388 28.1732L34.8577 27.144L35.8692 26.1325L34.737 25.9753L34.2093 26.5049L33.1894 27.5248L31.9834 28.7299L30.9635 29.7507L29.7583 30.9559L28.7375 31.9748L27.5324 33.1819L26.5116 34.2008L25.3064 35.4059L24.2865 36.4267L23.0805 37.6319L22.0606 38.6527L20.8554 39.8578L19.8356 40.8777L18.6295 42.0838L17.6096 43.1037L16.4045 44.3088L15.3837 45.3297L14.9111 45.7928L14.2618 45.5149L14.8279 44.9582L16.033 43.7437L17.0538 42.7238L18.259 41.5186L19.2788 40.4979L20.4849 39.3021L21.5048 38.2719L22.7099 37.0761L23.7298 36.0562L24.9359 34.8408L25.9558 33.8303L27.1609 32.6158L28.1817 31.595L29.3869 30.3898L30.4068 29.3699L31.6128 28.1732L32.6327 27.144L33.8388 25.9482L33.9211 25.864L33.1979 25.7629L30.7034 27.784L29.7583 28.7299L28.7375 29.7507L27.5324 30.9559L26.5116 31.9748L25.3064 33.1819L24.2865 34.2008L23.0805 35.4059L22.0606 36.4267L20.8554 37.6319L19.8356 38.6527L18.6295 39.8578L17.6096 40.8777L16.4045 42.0838L15.3837 43.1037L14.1785 44.3088L13.3533 45.135L12.6945 44.8562L13.8071 43.7437L14.8279 42.7238L16.033 41.5186L17.0538 40.4979L18.259 39.3021L19.2788 38.2719L20.4849 37.0761L21.5048 36.0562L22.7099 34.8408L23.7298 33.8303L24.9359 32.6158L25.8538 31.7063L19.3434 36.9638H19.2976L18.6295 37.6319L17.6096 38.6527L16.4045 39.8578L15.3837 40.8777L14.1785 42.0838L13.1586 43.1037L11.9526 44.3088L11.1179 45.1444L8.80965 46.5254L9.35608 45.9696L10.376 44.9582L11.582 43.7437L12.6019 42.7238L13.8071 41.5186L14.8279 40.4979L16.033 39.3021L17.0538 38.2719L18.259 37.0761L18.491 36.8347L17.3598 36.6681L16.4045 37.6319L15.3837 38.6527L14.1785 39.8578L13.1586 40.8777L11.9526 42.0838L10.9327 43.1037L9.7266 44.3088L8.70767 45.3297L7.50159 46.5348L6.4817 47.5547L5.58159 48.4454L3.27329 49.8274L3.69996 49.4007L4.9051 48.204L5.92497 47.1841L7.13105 45.9696L8.15094 44.9582L9.35608 43.7437L10.376 42.7238L11.582 41.5186L12.6019 40.4979L13.8071 39.3021L14.8279 38.2719L16.033 37.0761L16.5523 36.5474L15.4211 36.38L15.3837 36.4267L14.1785 37.6319L13.1586 38.6527L11.9526 39.8578L10.9327 40.8777L9.7266 42.0838L8.70767 43.1037L7.50159 44.3088L6.4817 45.3297L5.27563 46.5348L4.25574 47.5547L3.05061 48.7607L2.02979 49.7806L1.70605 50.1044V49.1678L2.67914 48.204L3.69996 47.1841L4.9051 45.9696L5.92497 44.9582L7.13105 43.7437L8.15094 42.7238L9.35608 41.5186L10.376 40.4979L11.582 39.3021L12.6019 38.2719L13.8071 37.0761L14.6145 36.2602L13.4917 36.0927L13.1586 36.4267L11.9526 37.6319L10.9327 38.6527L9.7266 39.8578L8.70767 40.8777L7.50159 42.0838L6.4817 43.1037L5.27563 44.3088L4.25574 45.3297L3.05061 46.5348L2.02979 47.5547L1.70605 47.8803V46.9437L2.67914 45.9696L3.69996 44.9582L4.9051 43.7437L5.92497 42.7238L7.13105 41.5186L8.15094 40.4979L9.35608 39.3021L10.376 38.2719L11.582 37.0761L12.6019 36.0562L12.6758 35.973L12.324 35.9168L1.70605 46.1362V37.0845L11.99 28.1461L18.5556 31.5033L19.0655 31.7625L19.4454 31.3358L33.3653 15.9328L43.4921 21.3381L44.1134 21.6731L44.4745 21.0603L51.2722 9.63574V16.1181L48.6757 20.0039L49.4177 19.2619L50.4376 18.242L51.2722 17.4168V18.3431L50.9943 18.6219L49.7882 19.827L48.7683 20.8479L47.5622 22.053L46.8118 22.795L44.2154 26.6892L44.9667 25.9482L45.9866 24.9274L47.1927 23.7129L48.2116 22.7014L49.4177 21.4869L50.4376 20.468L51.2722 19.6418Z" fill="#BAD1FF"/>
<path d="M51.0126 26.5693L48.7502 29.7684L47.5619 30.9558L46.5429 31.9747L45.3369 33.1817L44.317 34.2007L43.1109 35.4058L42.3231 36.1946L41.7383 35.8521L42.7404 34.8406L43.7603 33.8301L44.9664 32.6156L45.9862 31.5948L47.1923 30.3897L48.2112 29.3698L49.4173 28.1731L50.4372 27.1438L51.0126 26.5693Z" fill="#BAD1FF"/>
<path d="M45.5873 34.2195L43.6393 36.9638L43.1387 36.6681L43.76 36.0562L44.966 34.8408L45.5873 34.2195Z" fill="#BAD1FF"/>
<path d="M32.4473 31.7896L28.7289 36.4267L27.5322 37.6319L26.5114 38.6527L25.3062 39.8578L24.2863 40.8777L23.0803 42.0838L22.0604 43.1036L20.8552 44.3088L19.8354 45.3296L18.6293 46.5348L18.0454 47.1186L17.3867 46.8407L18.2588 45.9696L19.2786 44.9582L20.4847 43.7437L21.5046 42.7238L22.7097 41.5186L23.7296 40.4978L24.9357 39.302L25.9556 38.2719L27.1607 37.0761L28.1815 36.0562L29.3867 34.8408L30.4066 33.8302L31.6126 32.6157L32.4473 31.7896Z" fill="#BAD1FF"/>
<path d="M23.5529 42.8997L19.8345 47.5453V47.5546L19.6025 47.7773L18.9531 47.4994L19.2778 47.1841L20.4839 45.9696L21.5038 44.9581L22.7089 43.7436L23.5529 42.8997Z" fill="#BAD1FF"/>
<path d="M61.8476 13.1833C62.1576 12.4311 61.9856 11.5663 61.4136 10.9911L51.4139 0.935303L48.5859 3.77908L55.1718 10.4018H30.0004V14.4241H59.9997C60.8076 14.4241 61.5396 13.9334 61.8476 13.1833ZM30.1524 19.6873C29.8424 20.4395 30.0144 21.3043 30.5864 21.8795L40.5861 31.9353L43.4141 29.0915L36.8282 22.4688H61.9996V18.4465H32.0003C31.1923 18.4465 30.4604 18.9352 30.1524 19.6873Z" fill="#568EFF"/>
</svg>
