<svg width="66" height="69" viewBox="0 0 66 69" fill="none" xmlns="http://www.w3.org/2000/svg">
<rect y="20.4175" width="48.5825" height="48.5825" fill="#BAD1FF"/>
<path d="M55.2297 53.5413L52.2337 52.3442V53.1673H9.25838V14.8617H10.0823L8.88355 11.8657L7.68652 14.8617H8.50959V53.1673V53.5413V53.9161H52.2337V54.74L55.2297 53.5413Z" fill="#558DFD"/>
<path d="M12.9626 47.4471C13.9645 47.4471 14.778 46.631 14.778 45.63C14.778 45.0297 14.4818 44.4995 14.0327 44.1695L19.2258 33.177C19.3692 33.2132 19.5195 33.2383 19.6758 33.2383C20.3762 33.2383 20.9782 32.835 21.2805 32.2529L32.1305 35.4648C32.1253 35.5235 32.1133 35.5805 32.1133 35.6401C32.1133 36.642 32.9277 37.4572 33.9295 37.4572C34.9305 37.4572 35.7466 36.642 35.7466 35.6401C35.7466 35.0053 35.4176 34.4465 34.9218 34.1218L41.4087 18.3023C41.5236 18.3256 41.6437 18.3386 41.768 18.3386C42.769 18.3386 41.9135 17.525 41.9135 16.5232C41.9135 15.5213 42.769 14.7061 41.768 14.7061C40.7662 14.7061 39.9509 15.5213 39.9509 16.5232C39.9509 17.158 40.2808 17.7167 40.7757 18.0415L34.2888 33.8593C34.1731 33.836 34.053 33.8247 33.9295 33.8247C33.2291 33.8247 32.6271 34.2255 32.3248 34.8093L21.4748 31.5974C21.48 31.5395 21.4912 31.4825 21.4912 31.4221C21.4912 30.4211 20.6776 29.6049 19.6758 29.6049C18.674 29.6049 17.8587 30.4211 17.8587 31.4221C17.8587 32.0223 18.1558 32.5526 18.6075 32.8833L13.4109 43.8759C13.2666 43.8388 13.119 43.8137 12.9626 43.8137C11.9591 43.8137 11.1455 44.6281 11.1455 45.63C11.1455 46.6318 11.9599 47.4471 12.9626 47.4471ZM40.6349 16.524C40.6349 15.8996 41.1427 15.3918 41.7689 15.3918C42.3924 15.3918 42.0494 15.8996 42.0494 16.524C42.0494 17.1476 42.3924 17.6563 41.7689 17.6563C41.1427 17.6554 40.6349 17.1476 40.6349 16.524ZM33.9295 34.5087C34.5531 34.5087 35.0609 35.0174 35.0609 35.641C35.0609 36.2654 34.5531 36.7732 33.9295 36.7732C33.306 36.7732 32.7973 36.2654 32.7973 35.641C32.7973 35.0174 33.306 34.5087 33.9295 34.5087ZM18.5435 31.4229C18.5435 30.7993 19.0497 30.2907 19.6758 30.2907C20.2994 30.2907 20.8081 30.7993 20.8081 31.4229C20.8081 32.0473 20.3002 32.5551 19.6758 32.5551C19.0497 32.5543 18.5435 32.0464 18.5435 31.4229ZM12.9626 44.4977C13.5862 44.4977 14.0931 45.0064 14.0931 45.63C14.0931 46.2535 13.5871 46.7622 12.9626 46.7622C12.3382 46.7622 11.8304 46.2535 11.8304 45.63C11.8304 45.0064 12.3391 44.4977 12.9626 44.4977Z" fill="#558DFD"/>
<path d="M12.9619 51.9578C13.9637 51.9578 14.7773 51.1434 14.7773 50.1416C14.7773 49.7555 14.6538 49.398 14.4465 49.1035L23.7688 39.5057C24.0564 39.6931 24.3975 39.8054 24.7654 39.8054C25.1998 39.8054 25.5945 39.6447 25.9089 39.3891L32.3474 44.7575C32.2023 45.0166 32.1134 45.3129 32.1134 45.6307C32.1134 46.6317 32.9278 47.4478 33.9296 47.4478C34.9306 47.4478 35.7467 46.6317 35.7467 45.6307C35.7467 45.2274 35.6077 44.8569 35.3857 44.5555L40.8164 38.6558C41.0936 38.8277 41.4183 38.9313 41.7698 38.9313C42.7708 38.9313 43.5853 38.1178 43.5853 37.116C43.5853 36.1141 42.7708 35.2988 41.7698 35.2988C40.768 35.2988 39.9527 36.1141 39.9527 37.116C39.9527 37.5184 40.0901 37.8898 40.3137 38.1903L34.8831 44.09C34.6041 43.9181 34.2811 43.8145 33.9305 43.8145C33.4943 43.8145 33.0997 43.976 32.787 44.2307L26.3485 38.8623C26.4927 38.6014 26.5825 38.3069 26.5825 37.9891C26.5825 36.9864 25.7681 36.172 24.7671 36.172C23.7636 36.172 22.9483 36.9856 22.9483 37.9891C22.9483 38.3752 23.0744 38.7327 23.2791 39.0272L13.9585 48.625C13.6727 48.4358 13.3315 48.3236 12.9636 48.3236C11.96 48.3236 11.1465 49.1397 11.1465 50.1407C11.1465 51.1417 11.9592 51.9578 12.9619 51.9578Z" fill="#558DFD"/>
<path fill-rule="evenodd" clip-rule="evenodd" d="M52.9915 31.757C44.3305 27.8987 40 24.0493 40 20.209V5.77401C40 4.66599 40.4253 4.40847 41.6022 3.69578C41.9585 3.48 42.3838 3.22249 42.887 2.887C43.1206 2.7313 48.0305 0 52.9915 0C57.3152 0 60.9308 1.4435 63.096 2.887C63.5993 3.22249 64.0245 3.48 64.3809 3.69578C65.5578 4.40847 65.983 4.66599 65.983 5.77401C66.0115 6.08759 65.9975 12.7564 65.9886 17.0257L65.9886 17.0305C65.9855 18.4841 65.983 19.659 65.983 20.209C65.983 24.0584 61.6525 27.9077 52.9915 31.757ZM63.096 20.2091C63.096 19.8766 63.0969 19.3196 63.0987 18.4114L63.1045 15.5919C63.1064 14.6797 63.1078 13.897 63.1091 13.15C63.1144 9.92791 63.113 7.16242 63.1099 6.30709L62.9116 6.18404C62.4448 5.89445 61.8364 5.51701 61.4946 5.28916C59.3636 3.86849 56.2541 2.88703 52.9915 2.88703C49.8708 2.88703 45.8154 4.40455 44.4884 5.28916C44.1467 5.51701 43.5382 5.89445 43.0715 6.18404L42.887 6.2985V20.2091C42.887 22.3865 46.1047 25.3605 52.9929 28.5842C59.8801 25.3677 63.096 22.3949 63.096 20.2091ZM57.7449 10.5273L51.5481 16.7241L48.2383 13.4143L46.1968 15.4557L51.5481 20.807L59.7863 12.5687L57.7449 10.5273Z" fill="#558DFD"/>
</svg>
