<svg width="66" height="77" viewBox="0 0 66 77" fill="none" xmlns="http://www.w3.org/2000/svg">
<path d="M8.79506 67.5176H0V76.3126H8.79506V67.5176Z" fill="#BAD1FF"/>
<path d="M19.6481 67.5176H10.8521V76.3126H19.6481V67.5176Z" fill="#BAD1FF"/>
<path d="M30.5011 67.5176H21.7061V76.3126H30.5011V67.5176Z" fill="#BAD1FF"/>
<path d="M41.3541 67.5176H32.5581V76.3126H41.3541V67.5176Z" fill="#BAD1FF"/>
<path d="M52.2062 67.5176H43.4121V76.3126H52.2062V67.5176Z" fill="#BAD1FF"/>
<path d="M8.79506 56.998H0V65.7931H8.79506V56.998Z" fill="#BAD1FF"/>
<path d="M19.6481 56.998H10.8521V65.7931H19.6481V56.998Z" fill="#BAD1FF"/>
<path d="M30.5011 56.998H21.7061V65.7931H30.5011V56.998Z" fill="#BAD1FF"/>
<path d="M41.3541 56.998H32.5581V65.7931H41.3541V56.998Z" fill="#BAD1FF"/>
<path d="M52.2062 56.998H43.4121V65.7931H52.2062V56.998Z" fill="#BAD1FF"/>
<path d="M0 55.2731H8.79506V46.478H0V55.2731ZM0.378694 46.8567H8.41541V54.8944H0.378694V46.8567Z" fill="#558DFD"/>
<path d="M19.6481 46.478H10.8521V55.2731H19.6481V46.478Z" fill="#BAD1FF"/>
<path d="M30.5011 46.478H21.7061V55.2731H30.5011V46.478Z" fill="#BAD1FF"/>
<path d="M41.3541 46.478H32.5581V55.2731H41.3541V46.478Z" fill="#BAD1FF"/>
<path d="M52.2062 46.478H43.4121V55.2731H52.2062V46.478Z" fill="#BAD1FF"/>
<path d="M0 44.7528H8.79506V35.9578H0V44.7528ZM0.378694 36.3365H8.41541V44.3732H0.378694V36.3365Z" fill="#558DFD"/>
<path d="M10.8521 44.7528H19.6481V35.9578H10.8521V44.7528ZM11.2317 36.3365H19.2684V44.3732H11.2317V36.3365Z" fill="#558DFD"/>
<path d="M30.5011 35.9578H21.7061V44.7528H30.5011V35.9578Z" fill="#BAD1FF"/>
<path d="M41.3541 35.9578H32.5581V44.7528H41.3541V35.9578Z" fill="#BAD1FF"/>
<path d="M43.4121 44.7528H52.2062V35.9578H43.4121V44.7528ZM43.7908 36.3365H51.8285V44.3732H43.7908V36.3365Z" fill="#558DFD"/>
<path d="M0 34.2326H8.79506V25.4375H0V34.2326ZM0.378694 25.8162H8.41541V33.8529H0.378694V25.8162Z" fill="#558DFD"/>
<path d="M10.8521 34.2326H19.6481V25.4375H10.8521V34.2326ZM11.2317 25.8162H19.2684V33.8529H11.2317V25.8162Z" fill="#558DFD"/>
<path d="M30.5011 25.4375H21.7061V34.2326H30.5011V25.4375Z" fill="#BAD1FF"/>
<path d="M32.5581 34.2326H41.3541V25.4375H32.5581V34.2326ZM32.9378 25.8162H40.9745V33.8529H32.9378V25.8162Z" fill="#558DFD"/>
<path d="M43.4121 25.4375V34.2326H52.2062V25.4375H43.4121ZM51.8285 33.8529H43.7908V25.8162H51.8285V33.8529Z" fill="#558DFD"/>
<path d="M50.3594 17.875L61.5312 8.9375L50.3594 0V6.70089H21.3125V11.1696H50.3594V17.875ZM66 24.5781H36.9531V17.875L25.7812 26.8125L36.9531 35.75V29.0469H66V24.5781Z" fill="#558DFD"/>
</svg>
