<svg width="67" height="64" viewBox="0 0 67 64" fill="none" xmlns="http://www.w3.org/2000/svg">
<rect y="17.168" width="46.8318" height="46.8318" fill="#BAD1FF"/>
<path d="M64.1575 5.37859C64.3418 4.98125 64.4454 4.53907 64.4454 4.07307V3.11467C64.4454 1.39722 63.0482 0 61.3307 0C59.6133 0 58.2161 1.39722 58.2161 3.11467C58.2542 3.80162 58.0886 4.48309 58.5039 5.37859C54.8719 7.53842 56.0333 11.5776 55.8202 12.9377H66.8413C66.6262 11.565 67.7908 7.53918 64.1575 5.37859ZM59.6536 3.11467C59.6536 2.18988 60.4059 1.43755 61.3307 1.43755C62.2555 1.43755 63.0079 2.18988 63.0079 3.11467V4.07307C63.0079 4.99786 62.2555 5.75019 61.3307 5.75019C60.4059 5.75019 59.6536 4.99786 59.6536 4.07307V3.11467ZM65.4037 11.5002H57.2578C57.3562 10.9931 56.667 7.98204 59.4067 6.51962C60.5286 7.4037 62.1158 7.41714 63.2547 6.51962C65.982 7.97541 65.3138 11.0372 65.4037 11.5002Z" fill="#568EFF"/>
<path d="M26.303 5.37859C26.7211 4.47713 26.5528 3.80075 26.5909 3.11467C26.5909 1.39722 25.1937 0 23.4762 0C21.7588 0 20.3615 1.39722 20.3615 3.11467C20.3997 3.80162 20.2341 4.48309 20.6494 5.37859C17.0175 7.53842 18.1788 11.5776 17.9657 12.9377H28.9867C28.7716 11.565 29.9363 7.53918 26.303 5.37859ZM21.7991 3.11467C21.7991 2.18988 22.5514 1.43755 23.4762 1.43755C24.401 1.43755 25.1533 2.18988 25.1533 3.11467V4.07307C25.1533 4.99786 24.401 5.75019 23.4762 5.75019C22.5514 5.75019 21.7991 4.99786 21.7991 4.07307V3.11467ZM27.5492 11.5002H19.4032C19.5017 10.9931 18.8125 7.98204 21.5522 6.51962C22.0824 6.93741 22.7504 7.18765 23.4762 7.18765C24.202 7.18765 24.8701 6.93741 25.4002 6.51962C28.1275 7.97541 27.4593 11.0372 27.5492 11.5002Z" fill="#568EFF"/>
<path d="M64.1575 41.6042C64.5756 40.7027 64.4074 40.0262 64.4454 39.3403C64.4454 37.6229 63.0482 36.2256 61.3307 36.2256C59.6133 36.2256 58.2161 37.6228 58.2161 39.3403V40.2986C58.2161 40.7647 58.3197 41.2067 58.5039 41.6042C54.8719 43.764 56.0333 47.8032 55.8202 49.1633H66.8413C66.6262 47.7907 67.7908 43.7648 64.1575 41.6042ZM59.6536 39.3403C59.6536 38.4155 60.4059 37.6631 61.3307 37.6631C62.2555 37.6631 63.0079 38.4155 63.0079 39.3403V40.2986C63.0079 41.2233 62.2555 41.9757 61.3307 41.9757C60.4059 41.9757 59.6536 41.2233 59.6536 40.2986V39.3403ZM65.4037 47.7258H57.2578C57.3562 47.2187 56.667 44.2076 59.4067 42.7452C60.5289 43.6296 62.1162 43.6424 63.2547 42.7452C65.982 44.2011 65.3138 47.2628 65.4037 47.7258Z" fill="#568EFF"/>
<path d="M26.3027 41.6042C26.4869 41.2068 26.5905 40.7647 26.5905 40.2986V39.3403C26.5905 37.6229 25.1933 36.2256 23.4759 36.2256C21.7584 36.2256 20.3612 37.6228 20.3612 39.3403V40.2986C20.3612 40.7647 20.4648 41.2067 20.6491 41.6042C18.9955 42.5875 17.9653 44.3652 17.9653 46.3361V49.1633H28.9864C28.7713 47.7907 29.9359 43.7648 26.3027 41.6042ZM21.7987 39.3403C21.7987 38.4155 22.5511 37.6631 23.4759 37.6631C24.4006 37.6631 25.153 38.4155 25.153 39.3403V40.2986C25.153 41.2233 24.4006 41.9757 23.4759 41.9757C22.5511 41.9757 21.7987 41.2233 21.7987 40.2986V39.3403ZM27.5488 47.7258H19.4029V46.3361C19.4029 44.8147 20.2333 43.449 21.5519 42.7452C22.6741 43.6296 24.2613 43.6424 25.3999 42.7452C28.1272 44.2011 27.459 47.2628 27.5488 47.7258Z" fill="#568EFF"/>
<path d="M63.3164 15.3911C63.497 15.8157 63.6669 16.2523 63.8211 16.6888L65.1764 16.2097C65.0122 15.7452 64.8314 15.2804 64.6391 14.8284L63.3164 15.3911Z" fill="#568EFF"/>
<path d="M64.1442 34.8498C66.3503 30.3036 67.0064 25.2881 66.2621 20.5142L64.8418 20.7357C65.5339 25.1747 64.9481 29.9005 62.8511 34.2222L64.1442 34.8498Z" fill="#568EFF"/>
<path d="M65.9893 19.0582C65.8836 18.5768 65.7618 18.0934 65.627 17.6213L64.2446 18.0158C64.3713 18.4594 64.4858 18.9139 64.5852 19.3664L65.9893 19.0582Z" fill="#568EFF"/>
<path d="M20.0785 14.8123C18.0808 19.5018 17.7003 24.5894 18.6587 29.2346L20.0666 28.9441C19.1708 24.6026 19.5118 19.8102 21.4011 15.3757L20.0785 14.8123Z" fill="#568EFF"/>
<path d="M20.7965 31.6313C20.6483 31.1945 20.5115 30.7463 20.3903 30.2993L19.0029 30.6759C19.1321 31.1516 19.2776 31.6285 19.4354 32.0934L20.7965 31.6313Z" fill="#568EFF"/>
<path d="M21.8521 34.2076C21.6506 33.7916 21.4595 33.3637 21.2842 32.936L19.9541 33.4811C20.1406 33.9363 20.3439 34.3915 20.5583 34.8342L21.8521 34.2076Z" fill="#568EFF"/>
<path d="M33.1166 3.47882L32.533 2.16504C32.0841 2.36448 31.635 2.58082 31.1982 2.8082L31.8619 4.08328C32.2725 3.86953 32.6946 3.66616 33.1166 3.47882Z" fill="#568EFF"/>
<path d="M55.2529 5.53161L56.0698 4.34871C49.3695 -0.278505 41.0015 -1.03305 33.9053 1.60555L34.4063 2.95293C41.0523 0.481606 48.9287 1.16413 55.2529 5.53161Z" fill="#568EFF"/>
<path d="M30.6474 4.76415L29.906 3.53247C29.4992 3.77733 29.0941 4.03803 28.7017 4.30727L29.515 5.49257C29.884 5.23946 30.265 4.99441 30.6474 4.76415Z" fill="#568EFF"/>
<path d="M31.3493 44.2297L30.6528 45.4872C36.0334 48.4671 42.4594 49.2697 48.4479 47.7232L48.0885 46.3314C42.4638 47.784 36.4157 47.0356 31.3493 44.2297Z" fill="#568EFF"/>
<path d="M49.4253 45.9415L49.8703 47.3085C50.3376 47.1564 50.8067 46.9875 51.2644 46.8065L50.7358 45.4697C50.3055 45.6398 49.8647 45.7985 49.4253 45.9415Z" fill="#568EFF"/>
<path d="M52.0142 44.9176L52.6248 46.219C53.0703 46.01 53.5148 45.7844 53.9459 45.5485L53.256 44.2874C52.8506 44.5091 52.4328 44.7211 52.0142 44.9176Z" fill="#568EFF"/>
<path d="M42.3553 7.76245C33.2397 7.76245 25.8237 15.1784 25.8237 24.294C25.8237 33.4096 33.2397 40.8256 42.3553 40.8256C51.4709 40.8256 58.8869 33.4096 58.8869 24.294C58.8869 15.1784 51.4709 7.76245 42.3553 7.76245ZM37.5978 9.96885C36.8555 10.7215 36.17 11.6581 35.5592 12.7656C35.1914 13.4325 34.8594 14.1463 34.5646 14.899C33.7291 14.3936 32.9383 13.804 32.2029 13.1339C33.7444 11.7305 35.5769 10.6417 37.5978 9.96885ZM31.1862 14.1514C32.0802 14.9726 33.0497 15.6847 34.0786 16.2817C33.3836 18.4991 32.9867 20.9848 32.9246 23.5752H27.2788C27.4493 19.9568 28.8993 16.6675 31.1862 14.1514ZM27.2788 25.0127H32.9246C32.9913 27.7946 33.4446 30.4553 34.2382 32.7929C33.2616 33.3445 32.337 33.9982 31.4791 34.7489C29.0238 32.1957 27.4565 28.7832 27.2788 25.0127ZM32.5284 35.7414C33.2263 35.1417 33.9713 34.6117 34.7543 34.1543C34.9999 34.7369 35.2681 35.2946 35.5592 35.8224C36.17 36.93 36.8555 37.8666 37.5978 38.6192C35.7172 37.993 34 37.0064 32.5284 35.7414ZM41.6366 39.3252C39.8447 39.0155 38.1555 37.5531 36.8181 35.1282C36.5329 34.6112 36.2712 34.0626 36.033 33.4876C37.7805 32.6809 39.6777 32.2135 41.6367 32.1215V39.3252H41.6366ZM41.6366 30.6831C39.505 30.7745 37.4386 31.2708 35.5324 32.135C34.8295 29.9937 34.4263 27.5618 34.3624 25.0127H41.6366V30.6831ZM41.6366 23.5752H34.3624C34.4214 21.2246 34.7691 18.9737 35.3741 16.9583C37.3206 17.8661 39.4399 18.3864 41.6366 18.4798V23.5752ZM41.6366 17.0414C39.5997 16.9466 37.6369 16.4492 35.8393 15.5877C36.1268 14.8334 36.4534 14.1209 36.8181 13.4597C38.1555 11.0348 39.8447 9.57247 41.6366 9.2627V17.0414ZM57.4318 23.5752H51.786C51.7239 20.9848 51.327 18.4991 50.632 16.2817C51.6609 15.6847 52.6304 14.9725 53.5244 14.1514C55.8113 16.6675 57.2613 19.9568 57.4318 23.5752ZM52.5076 13.1339C51.7722 13.804 50.9814 14.3936 50.1459 14.899C49.8511 14.1463 49.5191 13.4325 49.1513 12.7656C48.5405 11.6581 47.855 10.7215 47.1127 9.96885C49.1337 10.6417 50.9662 11.7305 52.5076 13.1339ZM43.074 9.2627C44.8659 9.57247 46.5551 11.0349 47.8925 13.4597C48.2571 14.1209 48.5837 14.8334 48.8713 15.5877C47.0737 16.4492 45.1108 16.9466 43.074 17.0414V9.2627ZM43.074 18.4798C45.2707 18.3864 47.39 17.8661 49.3365 16.9583C49.9415 18.9738 50.2893 21.2246 50.3482 23.5752H43.074V18.4798ZM43.074 25.0127H50.3482C50.2843 27.5617 49.8811 29.9937 49.1782 32.135C47.2719 31.2708 45.2056 30.7745 43.074 30.6831V25.0127ZM43.074 39.3252V32.1215C45.0329 32.2135 46.9301 32.6809 48.6777 33.4876C48.4395 34.0626 48.1777 34.6112 47.8926 35.1282C46.5552 37.5531 44.8659 39.0155 43.074 39.3252ZM47.1128 38.6192C48.0938 37.6245 49.1052 36.1734 49.9563 34.1543C50.7393 34.6117 51.4843 35.1418 52.1822 35.7414C50.7106 37.0064 48.9934 37.993 47.1128 38.6192ZM53.2315 34.7489C52.3736 33.9982 51.449 33.3445 50.4724 32.7929C51.2659 30.4552 51.7193 27.7946 51.786 25.0127H57.4318C57.2541 28.7832 55.6868 32.1957 53.2315 34.7489Z" fill="#568EFF"/>
</svg>
