<svg width="61" height="67" viewBox="0 0 61 67" fill="none" xmlns="http://www.w3.org/2000/svg">
<rect y="14.0769" width="52.3785" height="52.3785" fill="#BAD1FF"/>
<path d="M33.4158 38.4706L33.2183 38.8863L33.6164 39.1175C37.4973 41.3711 38.8104 44.5778 39.2188 47.6193C39.4244 49.1504 39.3996 50.637 39.3504 51.9465C39.3432 52.1379 39.3353 52.3272 39.3276 52.5134C39.295 53.2977 39.2646 54.0283 39.2966 54.6346H15.8388C15.8699 54.0348 15.8397 53.311 15.8073 52.5333C15.7994 52.3443 15.7914 52.1522 15.7841 51.9578C15.7349 50.6496 15.7105 49.162 15.9166 47.629C16.326 44.5834 17.6404 41.3701 21.5195 39.1175L21.9176 38.8863L21.7201 38.4706C21.0882 37.1401 21.1103 36.1086 21.1338 35.0132C21.1425 34.6055 21.1515 34.189 21.1269 33.7448C21.1346 30.301 24.0102 27.4807 27.568 27.4807C31.1257 27.4807 34.0013 30.301 34.009 33.7448C33.9843 34.1901 33.9939 34.6068 34.0032 35.0145C34.0281 36.1054 34.0515 37.1321 33.4158 38.4706ZM36.6445 52.5063H37.2537L37.135 51.9088C37.1236 51.8516 37.12 51.7016 37.1303 51.3982C37.1332 51.3133 37.1369 51.2191 37.141 51.1173C37.1501 50.8911 37.1606 50.6271 37.1664 50.3433C37.1832 49.5109 37.1607 48.4463 36.9455 47.3047C36.5124 45.0079 35.295 42.397 32.0867 40.7247L31.8036 40.5771L31.5506 40.7718C30.4538 41.6159 29.0716 42.1218 27.568 42.1218C26.0643 42.1218 24.6821 41.6159 23.5853 40.7718L23.3323 40.5771L23.0492 40.7247C19.8289 42.4032 18.6147 44.9888 18.1871 47.2748C17.9747 48.4101 17.9556 49.4707 17.9737 50.3056C17.9794 50.5695 17.9893 50.8212 17.9978 51.0404C18.0025 51.1612 18.0069 51.2722 18.0099 51.3699C18.0195 51.6754 18.0151 51.8377 18.001 51.9088L17.8822 52.5063H18.4914H36.6445ZM27.568 29.609C25.2422 29.609 23.3305 31.4588 23.3305 33.7586V35.8441C23.3305 38.1439 25.2422 39.9937 27.568 39.9937C29.8937 39.9937 31.8054 38.1439 31.8054 35.8441V33.7586C31.8054 31.4588 29.8937 29.609 27.568 29.609Z" stroke="white"/>
<path d="M38.8287 23.4615H40.0604V7.40891H38.8287C37.4689 7.40891 36.3652 8.5153 36.3652 9.87854V20.9919C36.3652 22.3551 37.4689 23.4615 38.8287 23.4615ZM58.5364 7.40891H49.9143L51.2963 3.25004C51.8284 1.65095 50.641 0 48.9597 0H48.6825L42.5239 6.71494V23.4615H56.0729L60.8915 12.847C60.9223 12.7075 60.9703 12.4889 60.9998 12.3482V9.87854C60.9998 8.5153 59.8962 7.40891 58.5364 7.40891Z" fill="#568EFF"/>
</svg>
