<svg width="69" height="60" viewBox="0 0 69 60" fill="none" xmlns="http://www.w3.org/2000/svg">
<rect y="14.9998" width="44.6505" height="44.6505" fill="#BAD1FF"/>
<path d="M68.4491 1.47691L64.7661 2.95053V1.93768H11.9365V4.6004L20.9715 18.3885L29.0382 12.8412L42.5556 30.5321H50.6648L62.5705 48.532L62.2584 45.3448C62.2361 45.1144 62.406 44.9095 62.6353 44.884C62.6502 44.884 62.6629 44.884 62.6778 44.884C62.8912 44.884 63.0749 45.0465 63.0961 45.262L63.6535 50.9675L58.5478 48.2687C58.3429 48.1593 58.2622 47.9056 58.3716 47.6996C58.482 47.4947 58.7368 47.4162 58.9407 47.5223L61.942 49.1117L50.2114 31.373H42.1384L35.472 22.6491L33.5037 24.3998C33.3285 24.5548 33.0641 24.5378 32.908 24.3648C32.753 24.1896 32.769 23.9252 32.9431 23.7681L34.9242 22.0068C34.9359 21.9962 34.9507 21.9919 34.9624 21.9845L28.8524 13.99L20.7369 19.567L11.9333 6.12604V27.0923L12.7742 27.587C12.9738 27.7059 13.0428 27.9628 12.9239 28.1646C12.806 28.3652 12.548 28.4311 12.3474 28.3121L11.9333 28.069V49.0236H12.9472L11.4726 52.7065L10 49.0236H11.0118V1.93555V1.47479V1.01401H64.7619V9.91821e-05L68.4491 1.47691ZM62.6629 49.4918L62.6459 49.3251C62.6321 49.3357 62.6247 49.3516 62.6119 49.3601C62.578 49.3824 62.5376 49.393 62.5015 49.4058L62.6629 49.4918Z" fill="#568EFF"/>
<path d="M17.7982 30.6149C17.8714 30.6149 17.9436 30.634 18.0116 30.6744L19.7559 31.7021C19.9555 31.821 20.0214 32.0779 19.9035 32.2775C19.7857 32.4792 19.5277 32.545 19.3281 32.4272L17.5837 31.3974C17.3831 31.2806 17.3172 31.0215 17.4361 30.8219C17.5126 30.6892 17.6538 30.6149 17.7982 30.6149Z" fill="#568EFF"/>
<path d="M14.3072 28.5572C14.3804 28.5572 14.4548 28.5785 14.5206 28.6167L16.266 29.6444C16.4656 29.7633 16.5335 30.0202 16.4157 30.222C16.2978 30.4226 16.0388 30.4884 15.8392 30.3695L14.0938 29.3418C13.8931 29.2229 13.8273 28.966 13.9451 28.7643C14.0237 28.6315 14.1649 28.5572 14.3072 28.5572Z" fill="#568EFF"/>
<path d="M21.5002 32.7288L22.322 33.2139L23.0365 32.5812C23.1172 32.509 23.218 32.474 23.3168 32.474C23.4325 32.474 23.5482 32.5207 23.63 32.613C23.785 32.7882 23.7701 33.0536 23.596 33.2076L22.426 34.2512L21.0724 33.4539C20.8728 33.3371 20.8048 33.0781 20.9227 32.8785C21.0394 32.6778 21.2964 32.6141 21.5002 32.7288Z" fill="#568EFF"/>
<path d="M27.001 29.0564C27.0796 28.9842 27.1804 28.9492 27.2813 28.9492C27.3949 28.9492 27.5106 28.9959 27.5955 29.0904C27.7495 29.2634 27.7357 29.531 27.5605 29.6849L25.5794 31.4463C25.4064 31.6002 25.1409 31.5854 24.9838 31.4112C24.8299 31.2382 24.8468 30.9717 25.0199 30.8167L27.001 29.0564Z" fill="#568EFF"/>
<path d="M30.963 25.5326C31.0437 25.4625 31.1435 25.4254 31.2422 25.4254C31.359 25.4254 31.4748 25.4742 31.5597 25.5666C31.7136 25.7417 31.6966 26.0072 31.5225 26.1611L29.5414 27.9246C29.3684 28.0775 29.1029 28.0647 28.9479 27.8874C28.7929 27.7144 28.8078 27.4479 28.9819 27.2929L30.963 25.5326Z" fill="#568EFF"/>
<path d="M36.8713 20.8399C36.7163 20.6648 36.7333 20.4004 36.9074 20.2465L38.8885 18.483C38.9681 18.4129 39.069 18.3779 39.1688 18.3779C39.2856 18.3779 39.4013 18.4246 39.4841 18.5191C39.6391 18.6921 39.6232 18.9597 39.448 19.1136L37.4669 20.875C37.2928 21.0268 37.0263 21.0151 36.8713 20.8399Z" fill="#568EFF"/>
<path d="M42.9306 17.2334L42.1344 16.7238L41.4294 17.3513C41.2574 17.5053 40.9888 17.4904 40.8349 17.3163C40.6809 17.1432 40.6968 16.8767 40.8699 16.7228L42.0516 15.6728L43.3829 16.5253C43.5793 16.6506 43.6367 16.9118 43.5103 17.1071C43.384 17.3035 43.1228 17.3587 42.9306 17.2334Z" fill="#568EFF"/>
<path d="M47.571 20.2092L45.2501 18.7218C45.0548 18.5965 44.9975 18.3353 45.1238 18.14C45.2045 18.0147 45.3393 17.9468 45.4774 17.9468C45.5559 17.9468 45.6355 17.968 45.7046 18.0126L48.0254 19.5C48.2208 19.6253 48.2781 19.8865 48.1528 20.0818C48.0254 20.2793 47.7621 20.3345 47.571 20.2092Z" fill="#568EFF"/>
<path d="M61.4927 29.137L59.1718 27.6496C58.9765 27.5243 58.9202 27.2652 59.0444 27.0699C59.1251 26.9425 59.2621 26.8745 59.399 26.8745C59.4765 26.8745 59.5551 26.8968 59.6273 26.9414L61.946 28.4299C62.1435 28.5552 62.1998 28.8142 62.0734 29.0096C61.946 29.2071 61.6848 29.2644 61.4927 29.137Z" fill="#568EFF"/>
<path d="M52.2127 23.1853L49.8918 21.6968C49.6965 21.5716 49.6391 21.3104 49.7634 21.115C49.844 20.9898 49.981 20.9218 50.119 20.9218C50.1955 20.9218 50.2751 20.942 50.3462 20.9876L52.666 22.4761C52.8624 22.6014 52.9198 22.8626 52.7934 23.0579C52.6671 23.2554 52.4038 23.3127 52.2127 23.1853Z" fill="#568EFF"/>
<path d="M56.8525 26.1612L54.5317 24.6737C54.3352 24.5485 54.279 24.2894 54.4053 24.094C54.486 23.9666 54.6208 23.8987 54.7588 23.8987C54.8374 23.8987 54.916 23.921 54.9861 23.9666L57.3069 25.4541C57.5023 25.5794 57.5585 25.8384 57.4343 26.0337C57.3069 26.2312 57.0457 26.2886 56.8525 26.1612Z" fill="#568EFF"/>
<path d="M65.4565 31.1797C65.3302 31.3772 65.0669 31.4324 64.8747 31.3071L63.8119 30.6244C63.6166 30.4992 63.5593 30.2401 63.6845 30.0448C63.7652 29.9174 63.9022 29.8494 64.0392 29.8494C64.1167 29.8494 64.1952 29.8717 64.2664 29.9174L65.3291 30.5979C65.5255 30.7232 65.5818 30.9844 65.4565 31.1797Z" fill="#568EFF"/>
<path d="M65.2694 27.8609C65.3289 27.8344 65.3894 27.8195 65.4499 27.8195C65.6081 27.8195 65.7588 27.9076 65.831 28.0605L68.2878 33.2373L62.5695 32.4294C62.3391 32.3964 62.1799 32.183 62.2128 31.9527C62.2447 31.7244 62.4517 31.5705 62.6884 31.5949L66.8566 32.1852L65.0677 28.4225C64.97 28.2123 65.0602 27.9618 65.2694 27.8609Z" fill="#568EFF"/>
</svg>
