<svg width="141" height="31" viewBox="0 0 141 31" fill="none" xmlns="http://www.w3.org/2000/svg">
<path fill-rule="evenodd" clip-rule="evenodd" d="M11.5394 29.3343C13.8311 30.0375 16.1409 30.316 18.1301 30.0473C24.841 29.1407 28.5101 20.0436 28.8381 12.9078L11.5394 29.3343ZM3.98905 25.1842C4.46842 25.6086 4.97815 26.011 5.51323 26.3895L27.5874 5.42752C27.3091 4.76812 27.0012 4.17685 26.6665 3.64943L3.98905 25.1842ZM13.8196 1.5096C7.56579 4.20435 -0.764724 12.5215 0.0563011 18.5957C0.118942 19.0586 0.22414 19.5124 0.364006 19.9588L21.2975 0.0805724C20.8987 0.0262996 20.4904 0.000239087 20.0741 0C18.1253 0 15.9972 0.571418 13.8196 1.5096ZM7.42138 27.5847C8.01982 27.9156 8.63523 28.218 9.2614 28.4906L28.7697 9.96587C28.7021 9.30193 28.6009 8.67193 28.4591 8.09454C28.4261 7.96089 28.39 7.83513 28.3556 7.7053L7.42138 27.5847ZM1.32442 22.0539C1.65269 22.5988 2.03283 23.125 2.45984 23.6292L25.2838 1.95549C24.786 1.48856 24.2526 1.11032 23.6867 0.818635L1.32442 22.0539Z" fill="white"/>
<path d="M44.9224 14.5747C44.9224 11.869 43.1096 9.73225 40.5129 9.73225C38.023 9.73225 35.9948 11.6524 35.9948 14.5747C35.9948 17.2257 37.8069 19.2281 40.5129 19.2281C42.947 19.2281 44.9224 17.361 44.9224 14.5747ZM138.624 7.89462V14.2797C138.624 17.4165 136.81 19.2307 134.702 19.2307C132.619 19.2307 131.478 18.0898 131.478 15.1115V7.89462H129.292V15.7372C129.292 19.5002 131.209 21.2271 134.243 21.2271C135.97 21.2271 137.594 20.3635 138.592 18.7951H138.624V21.0688H138.632C138.45 23.0726 137.016 24.5858 134.243 24.5858C132.445 24.5858 131.153 24.1174 129.732 23.3311V25.5598C131.115 26.2352 132.662 26.5822 134.322 26.5822C138.513 26.5822 140.453 24.3321 140.763 21.0688C140.795 20.7518 140.81 20.4271 140.81 20.0943V18.5256V7.89462H138.624ZM123.796 14.5747C123.796 11.869 121.984 9.73225 119.386 9.73225C116.897 9.73225 114.868 11.6524 114.868 14.5747C114.868 17.2257 116.681 19.2281 119.386 19.2281C121.82 19.2281 123.796 17.361 123.796 14.5747ZM112.65 14.5747C112.65 10.6795 115.328 7.73037 119.061 7.73037C121.009 7.73037 122.713 8.65014 123.66 10.2463L123.715 10.2193V7.89319H125.905V21.0676H123.796V18.6863H123.769C122.822 20.255 121.199 21.2297 119.061 21.2297C115.436 21.2297 112.65 18.578 112.65 14.5747ZM108.806 14.5747C108.806 11.6524 106.777 9.73225 104.288 9.73225C101.61 9.73225 99.7977 11.869 99.7977 14.5747C99.7977 17.361 101.8 19.2281 104.316 19.2281C106.966 19.2281 108.806 17.2257 108.806 14.5747ZM99.9055 7.89319V10.2193H99.933C100.934 8.65014 102.611 7.73037 104.613 7.73037C108.347 7.73037 111.025 10.6795 111.025 14.5747C111.025 18.578 108.238 21.2297 104.613 21.2297C102.53 21.2297 100.907 20.3092 99.933 18.7946H99.9055V25.3121H97.7152V7.89319H99.9055ZM90.6098 21.2297C88.939 21.2297 87.0063 20.6282 85.0147 19.4447L86.1443 17.7099C89.2573 19.5602 91.4349 19.4146 92.4354 18.661C93.0028 18.2332 93.2063 17.5903 92.9803 16.9407C92.758 16.3048 91.4016 15.8051 90.2048 15.3647C89.6965 15.1782 89.1705 14.984 88.6772 14.7653C85.39 13.3123 85.6896 11.1782 86.1613 10.0361C86.7478 8.61523 88.2658 7.7495 90.2213 7.72129C93.1293 7.66558 95.2072 9.49292 95.2947 9.56991L93.8415 11.0699L94.5683 10.3194L93.8453 11.0728C93.83 11.0597 92.3116 9.76357 90.3195 9.76357H90.2538C89.7455 9.77074 88.5221 9.8855 88.151 10.7854C87.9686 11.2277 87.6288 12.0509 89.576 12.9126C90.0168 13.1074 90.4957 13.2825 90.9739 13.4587C92.692 14.0908 94.4686 14.7447 95.009 16.2947C95.5173 17.7522 95.0269 19.3106 93.7595 20.2648C92.9024 20.9108 91.8255 21.2297 90.6098 21.2297ZM79.3263 7.89295V10.3003H79.3806C80.1349 9.02814 81.2423 8.11315 82.5901 7.84752C83.2177 7.72416 84.2082 7.70312 84.3973 7.73013V9.93045C84.0731 9.90367 83.4699 9.9699 83.2586 10.0175C80.7214 10.5865 79.3263 12.5915 79.3263 14.71V21.0674H77.1348V7.89295H79.3263ZM64.4264 13.3575H72.5145C72.1903 11.1931 70.7832 9.73225 68.619 9.73225C66.5088 9.73225 64.8316 11.1115 64.4264 13.3575ZM74.6521 15.1433H64.3719C64.6693 17.6047 66.401 19.2276 68.8901 19.2276C70.6489 19.2276 71.8924 18.4697 72.7038 17.4686L74.2459 18.7674C73.1103 20.2287 71.4603 21.23 68.8088 21.23C64.9132 21.23 62.1534 18.524 62.1534 14.4932C62.1534 10.5169 64.8859 7.73037 68.6465 7.73037C72.2443 7.73037 74.7062 10.489 74.7062 14.2505C74.7062 14.6015 74.6521 14.9805 74.6521 15.1433ZM51.3282 7.89295L55.3585 18.2811H55.386L59.4163 7.89295H61.7701L56.4139 21.0674H54.3034L48.9476 7.89295H51.3282ZM33.7759 14.5747C33.7759 10.6795 36.4544 7.73037 40.1875 7.73037C42.1358 7.73037 43.8398 8.65014 44.787 10.2463L44.8408 10.2193V7.89319H47.0318V21.0676H44.9224V18.6863H44.8953C43.9481 20.255 42.3252 21.2297 40.1875 21.2297C36.5627 21.2297 33.7759 18.578 33.7759 14.5747Z" fill="white"/>
</svg>
