<svg width="64" height="62" viewBox="0 0 64 62" fill="none" xmlns="http://www.w3.org/2000/svg">
<path d="M8.80366 53.1318H0V61.9355H8.80366V53.1318Z" fill="#BAD1FF"/>
<path d="M19.6674 53.1318H10.8628V61.9355H19.6674V53.1318Z" fill="#BAD1FF"/>
<path d="M30.531 53.1318H21.7273V61.9355H30.531V53.1318Z" fill="#BAD1FF"/>
<path d="M41.3945 53.1318H32.5898V61.9355H41.3945V53.1318Z" fill="#BAD1FF"/>
<path d="M52.257 53.1318H43.4543V61.9355H52.257V53.1318Z" fill="#BAD1FF"/>
<path d="M8.80366 42.6023H0V51.406H8.80366V42.6023Z" fill="#BAD1FF"/>
<path d="M19.6674 42.6023H10.8628V51.406H19.6674V42.6023Z" fill="#BAD1FF"/>
<path d="M30.531 42.6023H21.7273V51.406H30.531V42.6023Z" fill="#BAD1FF"/>
<path d="M41.3945 42.6023H32.5898V51.406H41.3945V42.6023Z" fill="#BAD1FF"/>
<path d="M52.257 42.6023H43.4543V51.406H52.257V42.6023Z" fill="#BAD1FF"/>
<path d="M0 40.8754H8.80366V32.0718H0V40.8754ZM0.379064 32.4508H8.42364V40.4964H0.379064V32.4508Z" fill="#558DFD"/>
<path d="M19.6674 32.0718H10.8628V40.8754H19.6674V32.0718Z" fill="#BAD1FF"/>
<path d="M30.531 32.0718H21.7273V40.8754H30.531V32.0718Z" fill="#BAD1FF"/>
<path d="M41.3945 32.0718H32.5898V40.8754H41.3945V32.0718Z" fill="#BAD1FF"/>
<path d="M52.257 32.0718H43.4543V40.8754H52.257V32.0718Z" fill="#BAD1FF"/>
<path d="M0 30.3449H8.80366V21.5413H0V30.3449ZM0.379064 21.9203H8.42364V29.9649H0.379064V21.9203Z" fill="#558DFD"/>
<path d="M10.8628 30.3449H19.6674V21.5413H10.8628V30.3449ZM11.2428 21.9203H19.2874V29.9649H11.2428V21.9203Z" fill="#558DFD"/>
<path d="M30.531 21.5413H21.7273V30.3449H30.531V21.5413Z" fill="#BAD1FF"/>
<path d="M41.3945 21.5413H32.5898V30.3449H41.3945V21.5413Z" fill="#BAD1FF"/>
<path d="M43.4543 30.3449H52.257V21.5413H43.4543V30.3449ZM43.8334 21.9203H51.8789V29.9649H43.8334V21.9203Z" fill="#558DFD"/>
<path d="M0 19.8144H8.80366V11.0107H0V19.8144ZM0.379064 11.3898H8.42364V19.4344H0.379064V11.3898Z" fill="#558DFD"/>
<path d="M10.8628 19.8144H19.6674V11.0107H10.8628V19.8144ZM11.2428 11.3898H19.2874V19.4344H11.2428V11.3898Z" fill="#558DFD"/>
<path d="M30.531 11.0107H21.7273V19.8144H30.531V11.0107Z" fill="#BAD1FF"/>
<path d="M32.5898 19.8144H41.3945V11.0107H32.5898V19.8144ZM32.9699 11.3898H41.0144V19.4344H32.9699V11.3898Z" fill="#558DFD"/>
<path d="M43.4543 11.0107V19.8144H52.257V11.0107H43.4543ZM51.8789 19.4344H43.8334V11.3898H51.8789V19.4344Z" fill="#558DFD"/>
<path d="M63.6885 19.8911L58.2654 14.4701V6.79971C58.2654 6.21181 57.7882 5.73468 57.2003 5.73468H49.5299L44.1068 0.311523C43.6914 -0.103841 43.0162 -0.103841 42.6008 0.311523L37.1798 5.73468H29.5094C28.9215 5.73468 28.4444 6.21181 28.4444 6.79971V14.4701L23.0212 19.8932C22.6059 20.3086 22.6059 20.9838 23.0212 21.3992L28.4444 26.8202V34.4906C28.4444 35.0785 28.9215 35.5556 29.5094 35.5556H37.1798L42.603 40.9788C43.0183 41.3942 43.6936 41.3942 44.1089 40.9788L49.5299 35.5556H57.2003C57.7882 35.5556 58.2654 35.0785 58.2654 34.4906V26.8202L63.6885 21.3971C64.1039 20.9817 64.1039 20.3086 63.6885 19.8911ZM43.3549 29.1654C38.6496 29.1654 34.8346 25.3505 34.8346 20.6452C34.8346 15.9398 38.6496 12.1249 43.3549 12.1249C48.0602 12.1249 51.8752 15.9398 51.8752 20.6452C51.8752 25.3505 48.0602 29.1654 43.3549 29.1654Z" fill="#568EFF"/>
</svg>
