<svg width="71" height="63" viewBox="0 0 71 63" fill="none" xmlns="http://www.w3.org/2000/svg">
<rect y="18.3496" width="44.6505" height="44.6505" fill="#BAD1FF"/>
<path d="M70.682 51.2296L66.999 49.756V50.7689H14.1694V48.1061L23.2044 34.318L31.2711 39.8653L44.7885 22.1744H52.8977L64.8034 4.17455L64.4913 7.36174C64.469 7.59212 64.6389 7.79703 64.8682 7.82251C64.8831 7.82251 64.8958 7.82251 64.9107 7.82251C65.1241 7.82251 65.3078 7.66007 65.329 7.44455L65.8864 1.73905L60.7807 4.43785C60.5758 4.5472 60.4951 4.80096 60.6045 5.00693C60.7149 5.21183 60.9697 5.29039 61.1736 5.18422L64.1749 3.59488L52.4443 21.3336H44.3713L37.7049 30.0574L35.7366 28.3067C35.5614 28.1517 35.297 28.1687 35.1409 28.3418C34.9859 28.5169 35.0019 28.7813 35.176 28.9384L37.1571 30.6998C37.1688 30.7104 37.1836 30.7146 37.1953 30.7221L31.0853 38.7166L22.9698 33.1395L14.1663 46.5805V25.6143L15.0071 25.1195C15.2067 25.0006 15.2757 24.7437 15.1568 24.542C15.0389 24.3413 14.781 24.2755 14.5803 24.3944L14.1663 24.6375V3.68299H15.1802L13.7055 0L12.2329 3.68299H13.2447V50.771V51.2318V51.6925H66.9948V52.7064L70.682 51.2296ZM64.8958 3.21479L64.8788 3.38147C64.865 3.37086 64.8576 3.35493 64.8449 3.34643C64.8109 3.32414 64.7705 3.31352 64.7344 3.30078L64.8958 3.21479Z" fill="#568EFF"/>
<path d="M20.0311 22.0916C20.1043 22.0916 20.1765 22.0725 20.2445 22.0322L21.9888 21.0045C22.1884 20.8856 22.2543 20.6286 22.1364 20.429C22.0186 20.2273 21.7606 20.1615 21.561 20.2793L19.8166 21.3092C19.616 21.426 19.5501 21.685 19.669 21.8846C19.7455 22.0173 19.8867 22.0916 20.0311 22.0916Z" fill="#568EFF"/>
<path d="M16.5401 24.1493C16.6134 24.1493 16.6877 24.1281 16.7535 24.0899L18.4989 23.0622C18.6985 22.9432 18.7665 22.6863 18.6486 22.4846C18.5308 22.2839 18.2717 22.2181 18.0721 22.337L16.3267 23.3647C16.1261 23.4836 16.0602 23.7406 16.1781 23.9423C16.2566 24.075 16.3978 24.1493 16.5401 24.1493Z" fill="#568EFF"/>
<path d="M23.7331 19.9778L24.5549 19.4926L25.2694 20.1254C25.3501 20.1976 25.4509 20.2326 25.5497 20.2326C25.6654 20.2326 25.7811 20.1859 25.8629 20.0935C26.0179 19.9183 26.003 19.6529 25.8289 19.499L24.6589 18.4553L23.3053 19.2527C23.1057 19.3694 23.0377 19.6285 23.1556 19.8281C23.2724 20.0287 23.5293 20.0925 23.7331 19.9778Z" fill="#568EFF"/>
<path d="M29.2339 23.6501C29.3125 23.7223 29.4133 23.7574 29.5142 23.7574C29.6278 23.7574 29.7435 23.7107 29.8285 23.6162C29.9824 23.4431 29.9686 23.1755 29.7934 23.0216L27.8123 21.2603C27.6393 21.1063 27.3738 21.1212 27.2167 21.2953C27.0628 21.4684 27.0798 21.7348 27.2528 21.8899L29.2339 23.6501Z" fill="#568EFF"/>
<path d="M33.1959 27.174C33.2766 27.244 33.3764 27.2812 33.4751 27.2812C33.5919 27.2812 33.7077 27.2324 33.7926 27.14C33.9465 26.9648 33.9295 26.6994 33.7554 26.5454L31.7743 24.782C31.6013 24.6291 31.3359 24.6418 31.1809 24.8191C31.0258 24.9922 31.0407 25.2587 31.2148 25.4137L33.1959 27.174Z" fill="#568EFF"/>
<path d="M39.1042 31.8666C38.9492 32.0418 38.9662 32.3061 39.1403 32.4601L41.1214 34.2236C41.2011 34.2936 41.3019 34.3287 41.4017 34.3287C41.5185 34.3287 41.6342 34.2819 41.717 34.1875C41.872 34.0144 41.8561 33.7468 41.6809 33.5929L39.6998 31.8316C39.5257 31.6797 39.2592 31.6914 39.1042 31.8666Z" fill="#568EFF"/>
<path d="M45.1635 35.4731L44.3673 35.9827L43.6623 35.3552C43.4903 35.2013 43.2217 35.2162 43.0678 35.3903C42.9138 35.5633 42.9297 35.8298 43.1028 35.9838L44.2845 37.0338L45.6158 36.1812C45.8122 36.056 45.8696 35.7948 45.7432 35.5994C45.6169 35.403 45.3557 35.3478 45.1635 35.4731Z" fill="#568EFF"/>
<path d="M49.8041 32.4973L47.4833 33.9848C47.2879 34.11 47.2306 34.3712 47.357 34.5666C47.4377 34.6918 47.5725 34.7598 47.7105 34.7598C47.7891 34.7598 47.8687 34.7386 47.9377 34.694L50.2586 33.2065C50.4539 33.0813 50.5112 32.8201 50.386 32.6247C50.2586 32.4273 49.9953 32.372 49.8041 32.4973Z" fill="#568EFF"/>
<path d="M63.7258 23.5696L61.405 25.057C61.2096 25.1823 61.1534 25.4413 61.2776 25.6367C61.3583 25.7641 61.4952 25.832 61.6322 25.832C61.7097 25.832 61.7883 25.8097 61.8605 25.7651L64.1792 24.2766C64.3767 24.1514 64.4329 23.8923 64.3066 23.697C64.1792 23.4995 63.918 23.4422 63.7258 23.5696Z" fill="#568EFF"/>
<path d="M54.4458 29.5212L52.125 31.0097C51.9296 31.135 51.8723 31.3962 51.9965 31.5915C52.0772 31.7168 52.2141 31.7847 52.3522 31.7847C52.4286 31.7847 52.5083 31.7646 52.5794 31.7189L54.8992 30.2304C55.0956 30.1051 55.1529 29.844 55.0266 29.6486C54.9002 29.4511 54.6369 29.3938 54.4458 29.5212Z" fill="#568EFF"/>
<path d="M59.0854 26.5454L56.7646 28.0328C56.5682 28.1581 56.5119 28.4171 56.6382 28.6125C56.7189 28.7399 56.8537 28.8079 56.9918 28.8079C57.0703 28.8079 57.1489 28.7856 57.219 28.7399L59.5398 27.2525C59.7352 27.1272 59.7914 26.8682 59.6672 26.6728C59.5398 26.4753 59.2786 26.418 59.0854 26.5454Z" fill="#568EFF"/>
<path d="M67.6892 21.5268C67.5628 21.3294 67.2995 21.2741 67.1074 21.3994L66.0446 22.0821C65.8493 22.2074 65.7919 22.4664 65.9172 22.6618C65.9979 22.7892 66.1349 22.8571 66.2718 22.8571C66.3493 22.8571 66.4279 22.8348 66.499 22.7892L67.5618 22.1086C67.7582 21.9834 67.8145 21.7222 67.6892 21.5268Z" fill="#568EFF"/>
<path d="M67.5023 24.8456C67.5618 24.8722 67.6223 24.887 67.6828 24.887C67.841 24.887 67.9917 24.7989 68.0639 24.646L70.5207 19.4692L64.8024 20.2772C64.5721 20.3101 64.4128 20.5235 64.4457 20.7539C64.4776 20.9822 64.6846 21.1361 64.9213 21.1117L69.0895 20.5214L67.3006 24.284C67.2029 24.4942 67.2932 24.7448 67.5023 24.8456Z" fill="#568EFF"/>
</svg>
