<svg width="67" height="64" viewBox="0 0 67 64" fill="none" xmlns="http://www.w3.org/2000/svg">
<rect y="17.168" width="46.8318" height="46.8318" fill="#BAD1FF"/>
<path d="M64.1578 5.37859C64.342 4.98125 64.4456 4.53907 64.4456 4.07307V3.11467C64.4456 1.39722 63.0484 0 61.331 0C59.6135 0 58.2163 1.39722 58.2163 3.11467C58.2544 3.80162 58.0889 4.48309 58.5042 5.37859C54.8721 7.53842 56.0335 11.5776 55.8204 12.9377H66.8415C66.6264 11.565 67.7911 7.53918 64.1578 5.37859ZM59.6538 3.11467C59.6538 2.18988 60.4062 1.43755 61.331 1.43755C62.2558 1.43755 63.0081 2.18988 63.0081 3.11467V4.07307C63.0081 4.99786 62.2558 5.75019 61.331 5.75019C60.4062 5.75019 59.6538 4.99786 59.6538 4.07307V3.11467ZM65.4039 11.5002H57.258C57.3564 10.9931 56.6673 7.98204 59.407 6.51962C60.5288 7.4037 62.116 7.41714 63.255 6.51962C65.9823 7.97541 65.3141 11.0372 65.4039 11.5002Z" fill="#568EFF"/>
<path d="M26.3028 5.37859C26.7208 4.47713 26.5525 3.80075 26.5906 3.11467C26.5906 1.39722 25.1934 0 23.476 0C21.7585 0 20.3613 1.39722 20.3613 3.11467C20.3994 3.80162 20.2339 4.48309 20.6492 5.37859C17.0172 7.53842 18.1785 11.5776 17.9654 12.9377H28.9865C28.7714 11.565 29.9361 7.53918 26.3028 5.37859ZM21.7988 3.11467C21.7988 2.18988 22.5512 1.43755 23.476 1.43755C24.4008 1.43755 25.1531 2.18988 25.1531 3.11467V4.07307C25.1531 4.99786 24.4008 5.75019 23.476 5.75019C22.5512 5.75019 21.7988 4.99786 21.7988 4.07307V3.11467ZM27.5489 11.5002H19.403C19.5014 10.9931 18.8123 7.98204 21.552 6.51962C22.0821 6.93741 22.7501 7.18765 23.476 7.18765C24.2018 7.18765 24.8698 6.93741 25.4 6.51962C28.1273 7.97541 27.4591 11.0372 27.5489 11.5002Z" fill="#568EFF"/>
<path d="M64.1578 41.6042C64.5758 40.7027 64.4076 40.0262 64.4456 39.3403C64.4456 37.6229 63.0484 36.2256 61.331 36.2256C59.6135 36.2256 58.2163 37.6228 58.2163 39.3403V40.2986C58.2163 40.7647 58.3199 41.2067 58.5042 41.6042C54.8721 43.764 56.0335 47.8032 55.8204 49.1633H66.8415C66.6264 47.7907 67.7911 43.7648 64.1578 41.6042ZM59.6538 39.3403C59.6538 38.4155 60.4062 37.6631 61.331 37.6631C62.2558 37.6631 63.0081 38.4155 63.0081 39.3403V40.2986C63.0081 41.2233 62.2558 41.9757 61.331 41.9757C60.4062 41.9757 59.6538 41.2233 59.6538 40.2986V39.3403ZM65.4039 47.7258H57.258C57.3564 47.2187 56.6673 44.2076 59.407 42.7452C60.5292 43.6296 62.1164 43.6424 63.255 42.7452C65.9823 44.2011 65.3141 47.2628 65.4039 47.7258Z" fill="#568EFF"/>
<path d="M26.3027 41.6042C26.4869 41.2068 26.5905 40.7647 26.5905 40.2986V39.3403C26.5905 37.6229 25.1933 36.2256 23.4759 36.2256C21.7584 36.2256 20.3612 37.6228 20.3612 39.3403V40.2986C20.3612 40.7647 20.4648 41.2067 20.6491 41.6042C18.9955 42.5875 17.9653 44.3652 17.9653 46.3361V49.1633H28.9864C28.7713 47.7907 29.9359 43.7648 26.3027 41.6042ZM21.7987 39.3403C21.7987 38.4155 22.5511 37.6631 23.4759 37.6631C24.4006 37.6631 25.153 38.4155 25.153 39.3403V40.2986C25.153 41.2233 24.4006 41.9757 23.4759 41.9757C22.5511 41.9757 21.7987 41.2233 21.7987 40.2986V39.3403ZM27.5488 47.7258H19.4029V46.3361C19.4029 44.8147 20.2333 43.449 21.5519 42.7452C22.6741 43.6296 24.2613 43.6424 25.3999 42.7452C28.1272 44.2011 27.459 47.2628 27.5488 47.7258Z" fill="#568EFF"/>
<path d="M63.3164 15.3911C63.497 15.8157 63.6669 16.2523 63.8211 16.6888L65.1764 16.2097C65.0122 15.7452 64.8314 15.2804 64.6391 14.8284L63.3164 15.3911Z" fill="#568EFF"/>
<path d="M64.1442 34.8498C66.3503 30.3036 67.0064 25.2881 66.2621 20.5142L64.8418 20.7357C65.5339 25.1747 64.9481 29.9005 62.8511 34.2222L64.1442 34.8498Z" fill="#568EFF"/>
<path d="M65.989 19.0582C65.8834 18.5768 65.7615 18.0934 65.6267 17.6213L64.2444 18.0158C64.371 18.4594 64.4856 18.9139 64.585 19.3664L65.989 19.0582Z" fill="#568EFF"/>
<path d="M20.0785 14.8123C18.0808 19.5018 17.7003 24.5894 18.6587 29.2346L20.0666 28.9441C19.1708 24.6026 19.5118 19.8102 21.4011 15.3757L20.0785 14.8123Z" fill="#568EFF"/>
<path d="M20.7965 31.6313C20.6483 31.1945 20.5115 30.7463 20.3903 30.2993L19.0029 30.6759C19.1321 31.1516 19.2776 31.6285 19.4354 32.0934L20.7965 31.6313Z" fill="#568EFF"/>
<path d="M21.8523 34.2076C21.6509 33.7916 21.4598 33.3637 21.2844 32.936L19.9543 33.4811C20.1408 33.9363 20.3441 34.3915 20.5585 34.8342L21.8523 34.2076Z" fill="#568EFF"/>
<path d="M33.1166 3.47882L32.533 2.16504C32.0841 2.36448 31.635 2.58082 31.1982 2.8082L31.8619 4.08328C32.2725 3.86953 32.6946 3.66616 33.1166 3.47882Z" fill="#568EFF"/>
<path d="M55.2529 5.53161L56.0698 4.34871C49.3695 -0.278505 41.0015 -1.03305 33.9053 1.60555L34.4063 2.95293C41.0523 0.481606 48.9287 1.16413 55.2529 5.53161Z" fill="#568EFF"/>
<path d="M30.6471 4.76415L29.9057 3.53247C29.499 3.77733 29.0939 4.03803 28.7014 4.30727L29.5147 5.49257C29.8837 5.23946 30.2648 4.99441 30.6471 4.76415Z" fill="#568EFF"/>
<path d="M31.3493 44.2297L30.6528 45.4872C36.0334 48.4671 42.4594 49.2697 48.4479 47.7232L48.0885 46.3314C42.4638 47.784 36.4157 47.0356 31.3493 44.2297Z" fill="#568EFF"/>
<path d="M49.4255 45.9415L49.8705 47.3085C50.3378 47.1564 50.8069 46.9875 51.2647 46.8065L50.736 45.4697C50.3058 45.6398 49.8649 45.7985 49.4255 45.9415Z" fill="#568EFF"/>
<path d="M52.0144 44.9176L52.625 46.219C53.0706 46.01 53.515 45.7844 53.9462 45.5485L53.2563 44.2874C52.8509 44.5091 52.4331 44.7211 52.0144 44.9176Z" fill="#568EFF"/>
<path d="M42.3555 7.76245C33.24 7.76245 25.824 15.1784 25.824 24.294C25.824 33.4096 33.24 40.8256 42.3555 40.8256C51.4711 40.8256 58.8871 33.4096 58.8871 24.294C58.8871 15.1784 51.4711 7.76245 42.3555 7.76245ZM37.598 9.96885C36.8558 10.7215 36.1703 11.6581 35.5595 12.7656C35.1916 13.4325 34.8597 14.1463 34.5649 14.899C33.7294 14.3936 32.9385 13.804 32.2031 13.1339C33.7447 11.7305 35.5771 10.6417 37.598 9.96885ZM31.1864 14.1514C32.0804 14.9726 33.0499 15.6847 34.0788 16.2817C33.3838 18.4991 32.9869 20.9848 32.9248 23.5752H27.279C27.4495 19.9568 28.8996 16.6675 31.1864 14.1514ZM27.279 25.0127H32.9248C32.9916 27.7946 33.4449 30.4553 34.2384 32.7929C33.2619 33.3445 32.3373 33.9982 31.4793 34.7489C29.024 32.1957 27.4567 28.7832 27.279 25.0127ZM32.5286 35.7414C33.2265 35.1417 33.9716 34.6117 34.7545 34.1543C35.0001 34.7369 35.2683 35.2946 35.5595 35.8224C36.1703 36.93 36.8558 37.8666 37.598 38.6192C35.7174 37.993 34.0003 37.0064 32.5286 35.7414ZM41.6368 39.3252C39.8449 39.0155 38.1557 37.5531 36.8183 35.1282C36.5331 34.6112 36.2715 34.0626 36.0332 33.4876C37.7808 32.6809 39.678 32.2135 41.6369 32.1215V39.3252H41.6368ZM41.6368 30.6831C39.5052 30.7745 37.4388 31.2708 35.5327 32.135C34.8297 29.9937 34.4265 27.5618 34.3627 25.0127H41.6368V30.6831ZM41.6368 23.5752H34.3627C34.4216 21.2246 34.7693 18.9737 35.3743 16.9583C37.3208 17.8661 39.4401 18.3864 41.6368 18.4798V23.5752ZM41.6368 17.0414C39.6 16.9466 37.6371 16.4492 35.8396 15.5877C36.1271 14.8334 36.4536 14.1209 36.8183 13.4597C38.1557 11.0348 39.8449 9.57247 41.6368 9.2627V17.0414ZM57.4321 23.5752H51.7863C51.7241 20.9848 51.3273 18.4991 50.6323 16.2817C51.6612 15.6847 52.6307 14.9725 53.5247 14.1514C55.8115 16.6675 57.2616 19.9568 57.4321 23.5752ZM52.5079 13.1339C51.7724 13.804 50.9816 14.3936 50.1461 14.899C49.8513 14.1463 49.5194 13.4325 49.1515 12.7656C48.5407 11.6581 47.8552 10.7215 47.113 9.96885C49.1339 10.6417 50.9664 11.7305 52.5079 13.1339ZM43.0743 9.2627C44.8661 9.57247 46.5554 11.0349 47.8928 13.4597C48.2574 14.1209 48.5839 14.8334 48.8715 15.5877C47.074 16.4492 45.1111 16.9466 43.0743 17.0414V9.2627ZM43.0743 18.4798C45.271 18.3864 47.3903 17.8661 49.3367 16.9583C49.9418 18.9738 50.2896 21.2246 50.3484 23.5752H43.0743V18.4798ZM43.0743 25.0127H50.3484C50.2846 27.5617 49.8814 29.9937 49.1784 32.135C47.2722 31.2708 45.2059 30.7745 43.0743 30.6831V25.0127ZM43.0743 39.3252V32.1215C45.0331 32.2135 46.9303 32.6809 48.6779 33.4876C48.4397 34.0626 48.1779 34.6112 47.8929 35.1282C46.5555 37.5531 44.8661 39.0155 43.0743 39.3252ZM47.1131 38.6192C48.094 37.6245 49.1054 36.1734 49.9566 34.1543C50.7395 34.6117 51.4846 35.1418 52.1825 35.7414C50.7108 37.0064 48.9937 37.993 47.1131 38.6192ZM53.2318 34.7489C52.3738 33.9982 51.4492 33.3445 50.4727 32.7929C51.2661 30.4552 51.7195 27.7946 51.7863 25.0127H57.4321C57.2544 28.7832 55.6871 32.1957 53.2318 34.7489Z" fill="#568EFF"/>
</svg>
