<svg width="66" height="70" viewBox="0 0 66 70" fill="none" xmlns="http://www.w3.org/2000/svg">
<rect y="21.353" width="48.5825" height="48.5825" fill="#BAD1FF"/>
<path d="M55.2297 54.4768L52.2337 53.2798V54.1028H9.25838V15.7973H10.0823L8.88355 12.8013L7.68652 15.7973H8.50959V54.1028V54.4768V54.8516H52.2337V55.6756L55.2297 54.4768Z" fill="#558DFD"/>
<path d="M12.9621 48.3829C13.964 48.3829 14.7775 47.5667 14.7775 46.5658C14.7775 45.9655 14.4813 45.4352 14.0322 45.1053L19.2254 34.1128C19.3687 34.149 19.519 34.1741 19.6753 34.1741C20.3757 34.1741 20.9777 33.7708 21.28 33.1887L32.13 36.4006C32.1249 36.4593 32.1128 36.5163 32.1128 36.5759C32.1128 37.5778 32.9272 38.393 33.929 38.393C34.93 38.393 35.7462 37.5778 35.7462 36.5759C35.7462 35.9411 35.4171 35.3823 34.9214 35.0576L41.4083 19.2381C41.5231 19.2614 41.6432 19.2744 41.7675 19.2744C42.7685 19.2744 41.913 18.4608 41.913 17.459C41.913 16.4571 42.7685 15.6418 41.7675 15.6418C40.7657 15.6418 39.9504 16.4571 39.9504 17.459C39.9504 18.0938 40.2803 18.6525 40.7752 18.9773L34.2883 34.7951C34.1726 34.7717 34.0525 34.7605 33.929 34.7605C33.2286 34.7605 32.6266 35.1613 32.3244 35.7451L21.4743 32.5332C21.4795 32.4753 21.4907 32.4183 21.4907 32.3578C21.4907 31.3569 20.6771 30.5407 19.6753 30.5407C18.6735 30.5407 17.8582 31.3569 17.8582 32.3578C17.8582 32.9581 18.1553 33.4883 18.607 33.8191L13.4104 44.8117C13.2661 44.7746 13.1185 44.7495 12.9621 44.7495C11.9586 44.7495 11.145 45.5639 11.145 46.5658C11.145 47.5676 11.9594 48.3829 12.9621 48.3829ZM40.6344 17.4598C40.6344 16.8354 41.1422 16.3276 41.7684 16.3276C42.3919 16.3276 42.049 16.8354 42.049 17.4598C42.049 18.0834 42.3919 18.5921 41.7684 18.5921C41.1422 18.5912 40.6344 18.0834 40.6344 17.4598ZM33.929 35.4445C34.5526 35.4445 35.0604 35.9532 35.0604 36.5768C35.0604 37.2012 34.5526 37.709 33.929 37.709C33.3055 37.709 32.7968 37.2012 32.7968 36.5768C32.7968 35.9532 33.3055 35.4445 33.929 35.4445ZM18.5431 32.3587C18.5431 31.7351 19.0492 31.2265 19.6753 31.2265C20.2989 31.2265 20.8076 31.7351 20.8076 32.3587C20.8076 32.9831 20.2997 33.4909 19.6753 33.4909C19.0492 33.4901 18.5431 32.9822 18.5431 32.3587ZM12.9621 45.4335C13.5857 45.4335 14.0927 45.9422 14.0927 46.5658C14.0927 47.1893 13.5866 47.698 12.9621 47.698C12.3377 47.698 11.8299 47.1893 11.8299 46.5658C11.8299 45.9422 12.3386 45.4335 12.9621 45.4335Z" fill="#558DFD"/>
<path d="M12.9624 52.8936C13.9642 52.8936 14.7778 52.0792 14.7778 51.0773C14.7778 50.6913 14.6543 50.3337 14.447 50.0392L23.7693 40.4415C24.0568 40.6289 24.398 40.7412 24.7659 40.7412C25.2003 40.7412 25.595 40.5805 25.9094 40.3249L32.3479 45.6933C32.2028 45.9524 32.1138 46.2487 32.1138 46.5665C32.1138 47.5675 32.9283 48.3836 33.9301 48.3836C34.9311 48.3836 35.7472 47.5675 35.7472 46.5665C35.7472 46.1632 35.6082 45.7927 35.3862 45.4913L40.8169 39.5916C41.0941 39.7635 41.4188 39.8671 41.7703 39.8671C42.7713 39.8671 43.5857 39.0536 43.5857 38.0517C43.5857 37.0499 42.7713 36.2346 41.7703 36.2346C40.7685 36.2346 39.9532 37.0499 39.9532 38.0517C39.9532 38.4542 40.0905 38.8256 40.3142 39.1261L34.8836 45.0257C34.6046 44.8539 34.2816 44.7502 33.931 44.7502C33.4948 44.7502 33.1001 44.9117 32.7875 45.1665L26.349 39.7981C26.4932 39.5372 26.583 39.2427 26.583 38.9249C26.583 37.9222 25.7686 37.1078 24.7676 37.1078C23.7641 37.1078 22.9488 37.9213 22.9488 38.9249C22.9488 39.311 23.0749 39.6685 23.2796 39.963L13.959 49.5608C13.6732 49.3716 13.332 49.2594 12.9641 49.2594C11.9605 49.2594 11.147 50.0755 11.147 51.0765C11.147 52.0775 11.9597 52.8936 12.9624 52.8936Z" fill="#558DFD"/>
<path fill-rule="evenodd" clip-rule="evenodd" d="M52.9915 32.6926C44.3305 28.8342 40 24.9849 40 21.1446V6.70956C40 5.60153 40.4253 5.34402 41.6022 4.63133C41.9585 4.41555 42.3838 4.15803 42.887 3.82255C43.1206 3.66685 48.0305 0.935547 52.9915 0.935547C57.3152 0.935547 60.9308 2.37905 63.096 3.82255C63.5993 4.15803 64.0245 4.41555 64.3809 4.63133C65.5578 5.34402 65.983 5.60154 65.983 6.70956C66.0115 7.02313 65.9975 13.6919 65.9886 17.9612L65.9886 17.966C65.9855 19.4197 65.983 20.5946 65.983 21.1446C65.983 24.9939 61.6525 28.8433 52.9915 32.6926ZM63.096 21.1446C63.096 20.8121 63.0969 20.2551 63.0987 19.347L63.1045 16.5274C63.1064 15.6153 63.1078 14.8325 63.1091 14.0856C63.1144 10.8635 63.113 8.09796 63.1099 7.24264L62.9116 7.11958C62.4448 6.83 61.8364 6.45255 61.4946 6.22471C59.3636 4.80403 56.2541 3.82257 52.9915 3.82257C49.8708 3.82257 45.8154 5.34009 44.4884 6.22471C44.1467 6.45255 43.5382 6.83 43.0715 7.11958L42.887 7.23405V21.1446C42.887 23.3221 46.1047 26.2961 52.9929 29.5198C59.8801 26.3033 63.096 23.3304 63.096 21.1446ZM57.7449 11.4629L51.5481 17.6597L48.2383 14.3499L46.1968 16.3913L51.5481 21.7425L59.7863 13.5043L57.7449 11.4629Z" fill="#558DFD"/>
</svg>
