<svg width="73" height="55" viewBox="0 0 73 55" fill="none" xmlns="http://www.w3.org/2000/svg">
<path d="M14.0791 12H0V19.2821H14.0791V12Z" fill="#BAD1FF"/>
<path d="M46.0824 23.0212H11.3843V31.3515H46.0824V23.0212Z" fill="#BAD1FF"/>
<path d="M37.1334 34.5024H10.3914V42.8352H37.1334V34.5024Z" fill="#BAD1FF"/>
<path d="M51.2933 45.9736H15.3618V54.3039H51.2933V45.9736Z" fill="#BAD1FF"/>
<path d="M30.2118 31.3515H31.9567L31.9895 31.32L33.6122 29.6961L34.9854 28.3228L35.0056 28.3026V29.5537L34.1149 30.4457L33.209 31.3515H34.9527L34.9854 31.32L35.0056 31.2999V31.3515V23.0439V23.5617L34.1149 24.4512L32.7416 25.827L31.1189 27.4485L29.7444 28.8217L28.1204 30.4457L27.2158 31.3515H28.9595L28.9922 31.32L30.615 29.6961L31.9895 28.3228L33.6122 26.6988L34.9854 25.3256L35.0056 25.3054V26.559L34.1149 27.4485L32.7416 28.8217L31.1189 30.4457L30.2118 31.3515Z" fill="#BAD1FF"/>
<path d="M24.2185 31.3515H25.9622L25.9962 31.32L27.6189 29.6961L28.9922 28.3228L30.6149 26.6988L31.9894 25.3256L33.6121 23.7016L34.271 23.0439H32.5236L31.1188 24.4512L29.7443 25.827L28.1203 27.4485L26.7471 28.8217L25.1231 30.4457L24.2185 31.3515Z" fill="#BAD1FF"/>
<path d="M22.9661 31.3515L22.9988 31.32L24.6216 29.6961L25.9961 28.3228L27.6188 26.6988L28.9921 25.3256L30.6148 23.7016L31.2737 23.0439H29.5275L28.1202 24.4512L26.747 25.827L25.123 27.4485L23.7497 28.8217L22.127 30.4457L21.2212 31.3515H22.9661Z" fill="#BAD1FF"/>
<path d="M18.2253 31.3515H19.969L20.0018 31.32L21.627 29.6961L22.999 28.3228L24.6217 26.6988L25.9962 25.3256L27.6189 23.7016L28.2766 23.0439H26.5304L25.1231 24.4512L23.7499 25.827L22.1272 27.4485L20.7527 28.8217L19.13 30.4457L18.2253 31.3515Z" fill="#BAD1FF"/>
<path d="M15.228 31.3515H16.973L17.0057 31.32L18.6297 29.6961L20.0017 28.3228L21.6269 26.6988L22.9989 25.3256L24.6216 23.7016L25.2793 23.0439H23.5331L22.1271 24.4512L20.7526 25.827L19.1299 27.4485L17.7566 28.8217L16.1339 30.4457L15.228 31.3515Z" fill="#BAD1FF"/>
<path d="M12.2307 31.3515H13.9756L14.0084 31.32L15.6311 29.6961L17.0056 28.3228L18.6296 26.6988L20.0016 25.3256L21.6268 23.7016L22.2832 23.0439H20.5371L19.1298 24.4512L17.7565 25.827L16.1338 27.4485L14.7593 28.8217L13.1366 30.4457L12.2307 31.3515Z" fill="#BAD1FF"/>
<path d="M15.7458 42.8226H17.4908L18.6297 41.6812L20.003 40.3079L21.6269 38.6839L23.0002 37.3107L23.8733 36.4388V37.6899L23.7498 37.8146L22.1271 39.4361L20.7526 40.8118L19.1299 42.4333L18.7418 42.8238H20.4855L21.6257 41.6824L22.9989 40.3091L23.872 39.4373V40.6884L23.7485 40.8131L22.1258 42.4346L21.7365 42.8251H23.4814L23.872 42.4346V42.8251V34.5188V34.6964L23.7485 34.8199L22.1258 36.4439L20.7513 37.8171L19.1286 39.4386L17.7553 40.8143L16.1326 42.4358L15.7458 42.8226Z" fill="#BAD1FF"/>
<path d="M12.7488 42.8227H14.4924L15.6314 41.6812L17.0059 40.308L18.6299 38.684L20.0018 37.3107L21.6271 35.6892L22.7975 34.5176H21.0538L20.7527 34.8174L19.13 36.4414L17.7568 37.8147L16.134 39.4361L14.7595 40.8119L13.1368 42.4333L12.7488 42.8227Z" fill="#BAD1FF"/>
<path d="M39.5512 45.9863L38.7348 46.804L37.1121 48.4279L35.7375 49.8012L34.1148 51.4252L32.7416 52.7972L31.2449 54.2939H32.991L33.6122 53.669L34.9854 52.2958L36.6094 50.6743L37.9827 49.2985L39.6066 47.6771L40.9812 46.3038L41.2961 45.9863H39.5512Z" fill="#BAD1FF"/>
<path d="M31.9894 52.2958L33.6121 50.6743L34.9854 49.2985L36.6094 47.6771L37.9826 46.3038L38.2989 45.9863H36.5552L35.7375 46.804L34.1148 48.4279L32.7415 49.8012L31.1188 51.4252L29.7443 52.7972L28.2463 54.2939H29.9938L30.6149 53.669L31.9894 52.2958Z" fill="#BAD1FF"/>
<path d="M28.9921 52.2958L30.6148 50.6743L31.9893 49.2985L33.612 47.6771L34.9853 46.3038L35.3028 45.9863H33.5579L32.7415 46.804L31.1188 48.4279L29.7442 49.8012L28.1203 51.4252L26.747 52.7972L25.249 54.2939H26.9965L27.6188 53.669L28.9921 52.2958Z" fill="#BAD1FF"/>
<path d="M25.9962 52.2958L27.6189 50.6743L28.9922 49.2985L30.6149 47.6771L31.9894 46.3038L32.3056 45.9863H30.5607L29.7443 46.804L28.1204 48.4279L26.7471 49.8012L25.1231 51.4252L23.7499 52.7972L22.2544 54.2939H24.0006L24.6217 53.669L25.9962 52.2958Z" fill="#BAD1FF"/>
<path d="M21.002 54.2939L21.6269 53.669L22.9989 52.2958L24.6216 50.6743L25.9961 49.2985L27.6188 47.6771L28.9921 46.3038L29.3083 45.9863H27.5634L26.747 46.804L25.123 48.4279L23.7498 49.8012L22.1271 51.4252L20.7526 52.7972L19.2571 54.2939H21.002Z" fill="#BAD1FF"/>
<path d="M43.6469 45.9863H42.5483L41.7319 46.8027L40.108 48.4267L38.7347 49.8L37.112 51.4239L35.7374 52.7972L34.2407 54.2939H35.9869L36.6093 53.669L37.9825 52.2958L39.6065 50.6743L40.981 49.2985L42.6037 47.6771L43.6469 46.6326V47.8837L43.1039 48.4279L41.7307 49.8012L40.1067 51.4252L38.7334 52.7985L37.2367 54.2952H38.9829L39.6052 53.6703L40.9798 52.297L42.6025 50.6756L43.6457 49.6311V50.8822L43.1027 51.4264L41.7294 52.7997L40.2327 54.2964H41.9788L42.6025 53.6715L43.6457 52.6284V53.8819L43.2299 54.2964H43.6457V45.9863H43.6469Z" fill="#BAD1FF"/>
<path d="M30 0H57.7405V5.06463H30V0ZM30 10.1293H57.7405V15.1939H30V10.1293ZM30 20.2585H47.653V25.3232H30V20.2585ZM68.582 13.401L57.738 24.2672L54.4797 20.998L50.9138 24.5812L57.738 31.4286L72.1429 16.9868L68.582 13.401Z" fill="#568EFF"/>
</svg>
