<svg width="78" height="69" viewBox="0 0 78 69" fill="none" xmlns="http://www.w3.org/2000/svg">
<rect y="20.0972" width="48.9029" height="48.9029" fill="#BAD1FF"/>
<path d="M77.4138 56.1086L73.38 54.4947V55.604H15.519V52.6877L25.4145 37.5864L34.2494 43.662L49.0542 24.2863H57.9357L70.9753 4.57212L70.6335 8.06285C70.6091 8.31518 70.7951 8.53961 71.0463 8.56752C71.0625 8.56752 71.0765 8.56752 71.0928 8.56752C71.3265 8.56752 71.5277 8.3896 71.5509 8.15355L72.1614 1.90467L66.5695 4.8605C66.345 4.98027 66.2567 5.25819 66.3765 5.48377C66.4974 5.7082 66.7765 5.79423 66.9997 5.67795L70.287 3.93725L57.4392 23.3653H48.5972L41.296 32.9201L39.1402 31.0026C38.9483 30.8328 38.6588 30.8514 38.4878 31.041C38.3181 31.2328 38.3355 31.5224 38.5262 31.6945L40.696 33.6236C40.7088 33.6352 40.7251 33.6398 40.7378 33.648L34.0459 42.4039L25.1575 36.2957L15.5155 51.0167V28.0537L16.4365 27.5119C16.6551 27.3816 16.7307 27.1002 16.6004 26.8793C16.4714 26.6595 16.1888 26.5874 15.969 26.7177L15.5155 26.984V4.03375H16.626L15.0109 0L13.3981 4.03375H14.5062V55.6063V56.111V56.6156H73.3754V57.7261L77.4138 56.1086ZM71.0765 3.52096L71.0579 3.70352C71.0428 3.69189 71.0346 3.67444 71.0207 3.66514C70.9835 3.64072 70.9393 3.6291 70.8997 3.61514L71.0765 3.52096Z" fill="#568EFF"/>
<path d="M21.9388 24.1956C22.019 24.1956 22.098 24.1747 22.1725 24.1305L24.083 23.0049C24.3016 22.8746 24.3737 22.5932 24.2446 22.3746C24.1155 22.1537 23.833 22.0816 23.6144 22.2107L21.7039 23.3386C21.4841 23.4665 21.412 23.7502 21.5422 23.9688C21.626 24.1142 21.7806 24.1956 21.9388 24.1956Z" fill="#568EFF"/>
<path d="M18.1154 26.4491C18.1957 26.4491 18.277 26.4259 18.3491 26.384L20.2608 25.2584C20.4794 25.1282 20.5538 24.8468 20.4247 24.6259C20.2957 24.4061 20.0119 24.334 19.7933 24.4642L17.8817 25.5898C17.6619 25.7201 17.5898 26.0015 17.7189 26.2224C17.805 26.3677 17.9596 26.4491 18.1154 26.4491Z" fill="#568EFF"/>
<path d="M25.9934 21.8804L26.8934 21.349L27.6759 22.042C27.7643 22.121 27.8748 22.1594 27.9829 22.1594C28.1097 22.1594 28.2364 22.1083 28.326 22.0071C28.4957 21.8152 28.4794 21.5245 28.2887 21.3559L27.0073 20.2129L25.5248 21.0862C25.3062 21.2141 25.2317 21.4978 25.3608 21.7164C25.4887 21.9362 25.7701 22.0059 25.9934 21.8804Z" fill="#568EFF"/>
<path d="M32.018 25.9025C32.104 25.9816 32.2145 26.0199 32.325 26.0199C32.4494 26.0199 32.5761 25.9688 32.6691 25.8653C32.8377 25.6758 32.8226 25.3827 32.6308 25.2141L30.461 23.285C30.2715 23.1164 29.9808 23.1327 29.8087 23.3234C29.6401 23.5129 29.6587 23.8048 29.8482 23.9746L32.018 25.9025Z" fill="#568EFF"/>
<path d="M36.3575 29.762C36.4459 29.8387 36.5552 29.8794 36.6633 29.8794C36.7912 29.8794 36.918 29.8259 37.011 29.7247C37.1796 29.5329 37.161 29.2422 36.9703 29.0736L34.8005 27.1422C34.611 26.9747 34.3203 26.9887 34.1505 27.1829C33.9808 27.3724 33.997 27.6643 34.1877 27.834L36.3575 29.762Z" fill="#568EFF"/>
<path d="M42.8284 34.9015C42.6587 35.0934 42.6773 35.3829 42.868 35.5515L45.0378 37.4829C45.125 37.5597 45.2354 37.598 45.3447 37.598C45.4727 37.598 45.5994 37.5469 45.6901 37.4434C45.8599 37.2538 45.8424 36.9608 45.6506 36.7922L43.4808 34.8631C43.2901 34.6968 42.9982 34.7096 42.8284 34.9015Z" fill="#568EFF"/>
<path d="M49.4648 38.8516L48.5927 39.4098L47.8206 38.7225C47.6322 38.5539 47.338 38.5702 47.1694 38.7609C47.0008 38.9504 47.0182 39.2423 47.2078 39.4109L48.502 40.5609L49.9601 39.6272C50.1752 39.49 50.2381 39.2039 50.0997 38.99C49.9613 38.7749 49.6752 38.7144 49.4648 38.8516Z" fill="#568EFF"/>
<path d="M54.5473 35.5921L52.0054 37.2212C51.7914 37.3584 51.7287 37.6444 51.867 37.8584C51.9554 37.9956 52.1031 38.07 52.2542 38.07C52.3403 38.07 52.4275 38.0468 52.5031 37.9979L55.045 36.3688C55.2589 36.2316 55.3217 35.9456 55.1845 35.7316C55.045 35.5153 54.7566 35.4549 54.5473 35.5921Z" fill="#568EFF"/>
<path d="M69.7949 25.8141L67.253 27.4431C67.039 27.5804 66.9774 27.8641 67.1135 28.078C67.2018 28.2176 67.3518 28.292 67.5018 28.292C67.5867 28.292 67.6728 28.2676 67.7518 28.2187L70.2914 26.5885C70.5077 26.4513 70.5693 26.1675 70.4309 25.9536C70.2914 25.7373 70.0053 25.6745 69.7949 25.8141Z" fill="#568EFF"/>
<path d="M59.6311 32.3329L57.0893 33.9631C56.8753 34.1003 56.8125 34.3864 56.9486 34.6003C57.0369 34.7375 57.1869 34.812 57.3381 34.812C57.4218 34.812 57.509 34.7898 57.587 34.7398L60.1277 33.1096C60.3428 32.9724 60.4056 32.6863 60.2672 32.4724C60.1288 32.2561 59.8405 32.1933 59.6311 32.3329Z" fill="#568EFF"/>
<path d="M64.7126 29.0736L62.1707 30.7027C61.9556 30.8399 61.894 31.1236 62.0324 31.3376C62.1207 31.4771 62.2684 31.5515 62.4195 31.5515C62.5056 31.5515 62.5917 31.5271 62.6684 31.4771L65.2103 29.848C65.4242 29.7108 65.4859 29.4271 65.3498 29.2131C65.2103 28.9968 64.9242 28.934 64.7126 29.0736Z" fill="#568EFF"/>
<path d="M74.1359 23.5771C73.9975 23.3608 73.7091 23.3003 73.4986 23.4375L72.3347 24.1852C72.1207 24.3224 72.0579 24.6062 72.1951 24.8201C72.2835 24.9597 72.4335 25.0341 72.5835 25.0341C72.6684 25.0341 72.7545 25.0097 72.8324 24.9597L73.9963 24.2143C74.2115 24.0771 74.2731 23.791 74.1359 23.5771Z" fill="#568EFF"/>
<path d="M73.931 27.2119C73.9961 27.241 74.0624 27.2573 74.1287 27.2573C74.3019 27.2573 74.4671 27.1607 74.5461 26.9933L77.2369 21.3235L70.974 22.2084C70.7217 22.2444 70.5473 22.4782 70.5833 22.7305C70.6182 22.9805 70.845 23.1491 71.1043 23.1223L75.6694 22.4758L73.7101 26.5968C73.6031 26.827 73.702 27.1014 73.931 27.2119Z" fill="#568EFF"/>
</svg>
