<svg width="71" height="58" viewBox="0 0 71 58" fill="none" xmlns="http://www.w3.org/2000/svg">
<path d="M52.0138 28.4179V58H1.70572H1.29777H0.899176V15.8425H0L1.29871 12.5967L2.59648 15.8425H1.70665V39.3783L11.8699 30.5128L18.8902 34.1011L33.1985 18.2621L43.8445 23.937L52.0138 10.1938V18.2621V28.4179ZM51.2718 28.2794V27.3522L50.4372 28.1868L49.4173 29.2076L48.2113 30.4034L47.1914 31.4326L45.9853 32.6293L44.9654 33.6492L43.7594 34.8544L42.7395 35.8752L41.5334 37.0897L40.5135 38.1002L40.3283 38.2854L40.9215 38.6288L42.0901 37.4602L43.11 36.4403L44.3161 35.2342L45.336 34.2144L46.542 33.0092L47.5619 31.9884L48.768 30.7832L49.7879 29.7634L50.994 28.5573L51.2718 28.2794ZM51.2718 26.0534V25.1262L50.4372 25.9608L49.4173 26.9723L48.2113 28.1868L47.1914 29.2076L45.9853 30.4034L44.9654 31.4326L43.7594 32.6293L42.7395 33.6492L41.5334 34.8544L40.5135 35.8752L39.3074 37.0897L38.9276 37.4602L39.5124 37.8036L39.8642 37.4602L40.884 36.4403L42.0901 35.2342L43.11 34.2144L44.3161 33.0092L45.336 31.9884L46.542 30.7832L47.5619 29.7634L48.768 28.5573L49.7879 27.5374L50.994 26.3313L51.2718 26.0534ZM51.2718 23.8275V22.9002L50.4372 23.7264L49.4173 24.7463L48.2113 25.9608L47.1914 26.9723L45.9853 28.1868L44.9654 29.2076L44.2141 29.9486L46.8106 26.0544L47.5619 25.3124L48.768 24.1073L49.7879 23.0864L50.994 21.8813L51.2718 21.6025V20.6761L50.4372 21.5014L49.4173 22.5213L48.6754 23.2633L51.2718 19.3784V12.8961L44.4742 24.3206L44.113 24.9325L43.4918 24.5985L33.365 19.1931L19.446 34.5961L19.0661 35.0228L18.5562 34.7636L11.9906 31.4064L1.70665 40.3458V49.3975L12.3246 39.1781L12.6764 39.2342L12.6025 39.3175L11.5826 40.3374L10.3766 41.5332L9.35669 42.5633L8.15154 43.7591L7.13166 44.7799L5.92558 45.9851L4.90571 47.0049L3.70056 48.2204L2.68068 49.2309L1.70665 50.2049V51.1415L2.03133 50.8159L3.0512 49.796L4.25728 48.5909L5.27717 47.5701L6.48324 46.365L7.50313 45.3451L8.7092 44.139L9.72908 43.1191L10.9352 41.914L11.955 40.8932L13.1611 39.688L13.4942 39.354L14.6161 39.5215L13.8095 40.3374L12.6044 41.5332L11.5845 42.5633L10.3784 43.7591L9.35856 44.7799L8.15341 45.9851L7.13353 47.0049L5.92745 48.2204L4.90758 49.2309L3.70243 50.4463L2.68255 51.4662L1.70852 52.43V53.3666L2.0332 53.0419L3.05309 52.022L4.25915 50.8159L5.27904 49.796L6.48512 48.5909L7.505 47.5701L8.71107 46.365L9.73095 45.3451L10.937 44.139L11.9569 43.1191L13.163 41.914L14.1829 40.8932L15.3889 39.688L15.4264 39.6412L16.5576 39.8087L16.0383 40.3364L14.8322 41.5322L13.8123 42.5624L12.6072 43.7582L11.5873 44.779L10.3812 45.9841L9.36136 47.004L8.15622 48.2194L7.13635 49.23L5.93027 50.4454L4.91038 51.4653L3.70524 52.6611L3.27858 53.0877L5.58781 51.7058L6.48699 50.815L7.50687 49.7951L8.71294 48.59L9.73282 47.5691L10.9389 46.364L11.9588 45.3441L13.1649 44.1381L14.1847 43.1182L15.3908 41.913L16.4107 40.8922L17.366 39.9285L18.4972 40.095L18.2652 40.3364L17.06 41.5322L16.0402 42.5624L14.8341 43.7582L13.8142 44.779L12.6091 45.9841L11.5892 47.004L10.3831 48.2194L9.36323 49.23L8.8168 49.7867L11.126 48.4047L11.9606 47.5691L13.1667 46.364L14.1866 45.3441L15.3927 44.1381L16.4126 43.1182L17.6186 41.913L18.6385 40.8922L19.3066 40.2241H19.3524L25.8628 34.9666L24.9449 35.8761L23.7388 37.0906L22.719 38.1011L21.5138 39.3165L20.494 40.3364L19.2879 41.5322L18.268 42.5624L17.0629 43.7582L16.043 44.779L14.8369 45.9841L13.817 47.004L12.7045 48.1165L13.3632 48.3953L14.1885 47.5691L15.3945 46.364L16.4144 45.3441L17.6205 44.1381L18.6404 43.1182L19.8465 41.913L20.8663 40.8922L22.0715 39.6871L23.0914 38.6663L24.2974 37.4611L25.3173 36.4412L26.5225 35.2352L27.5423 34.2153L28.7484 33.0101L29.7683 31.9893L30.7143 31.0434L33.2088 29.0223L33.932 29.1234L33.8488 29.2076L32.6427 30.4034L31.6228 31.4326L30.4167 32.6293L29.3968 33.6492L28.1908 34.8544L27.1709 35.8752L25.9657 37.0897L24.9459 38.1002L23.7398 39.3156L22.7199 40.3355L21.5148 41.5313L20.4949 42.5615L19.2888 43.7572L18.2689 44.778L17.0638 45.9832L16.0439 47.0031L14.8378 48.2185L14.2727 48.7752L14.922 49.0531L15.3945 48.59L16.4144 47.5691L17.6205 46.364L18.6404 45.3441L19.8465 44.1381L20.8663 43.1182L22.0715 41.913L23.0914 40.8922L24.2974 39.6871L25.3173 38.6663L26.5225 37.4611L27.5423 36.4412L28.7484 35.2352L29.7683 34.2153L30.9734 33.0101L31.9933 31.9893L33.1994 30.7842L34.2193 29.7643L34.747 29.2357L35.8782 29.3928L34.8668 30.4043L33.8469 31.4335L32.6408 32.6303L31.6209 33.6501L30.4149 34.8553L29.395 35.8761L28.1889 37.0906L27.169 38.1011L25.9639 39.3165L24.944 40.3364L23.7379 41.5322L22.718 42.5624L21.5129 43.7582L20.493 44.779L19.2869 45.9841L18.2671 47.004L17.0619 48.2194L16.042 49.23L15.8287 49.4433L16.4874 49.7221L17.6186 48.5909L18.6385 47.5701L19.8446 46.365L20.8645 45.3451L22.0696 44.139L23.0895 43.1191L24.2956 41.914L25.3155 40.8932L26.5206 39.688L27.5405 38.6672L28.7465 37.462L29.7664 36.4422L30.9716 35.2361L31.9914 34.2162L33.1975 33.0111L34.2174 31.9903L35.4225 30.7851L36.4424 29.7653L36.6932 29.5135L37.8338 29.6717L37.0918 30.4043L36.0719 31.4335L34.8658 32.6303L33.8459 33.6501L33.3267 34.1694L33.9114 34.5128L34.2174 34.2162L35.4225 33.0111L36.4424 31.9903L37.6485 30.7851L38.6412 29.784L39.7818 29.9411L39.3177 30.4052L38.2979 31.4345L37.0918 32.6312L36.0719 33.6511L34.8658 34.8562L34.7273 34.9947L35.3206 35.3381L35.4225 35.2361L36.4424 34.2162L37.6485 33.0111L38.6684 31.9903L39.8735 30.7851L40.5968 30.0618L41.728 30.22L41.5428 30.4052L40.5229 31.4345L39.3168 32.6312L38.2969 33.6511L37.0908 34.8562L36.1355 35.8209L36.7203 36.1633L37.6476 35.2361L38.6674 34.2162L39.8726 33.0111L40.8925 31.9903L42.0985 30.7851L42.5439 30.3313L43.6845 30.4885L42.7479 31.4345L41.5418 32.6312L40.5219 33.6511L39.3159 34.8562L38.296 35.877L37.5353 36.6377L38.1201 36.9802L38.6674 36.4431L39.8726 35.237L40.8925 34.2172L42.0985 33.012L43.1184 31.9912L44.3245 30.7861L45.3444 29.7662L46.5505 28.5601L47.5703 27.5402L48.7764 26.3341L49.7963 25.3143L51.0024 24.1091L51.2718 23.8275ZM48.7502 33.027L51.0127 29.8279L50.4382 30.4024L49.4183 31.4317L48.2122 32.6284L47.1923 33.6483L45.9862 34.8534L44.9664 35.8742L43.7603 37.0887L42.7404 38.0992L41.7383 39.1107L42.3231 39.4532L43.1109 38.6644L44.317 37.4593L45.3369 36.4394L46.543 35.2333L47.5629 34.2134L48.7502 33.027ZM43.6396 40.2223L45.5877 37.477L44.9664 38.0983L43.7603 39.3137L43.139 39.9257L43.6396 40.2223ZM28.7288 39.6852L32.4471 35.048L31.6125 35.8742L30.4064 37.0887L29.3866 38.0992L28.1805 39.3147L27.1606 40.3346L25.9554 41.5304L24.9356 42.5605L23.7295 43.7563L22.7096 44.7771L21.5045 45.9823L20.4846 47.0021L19.2785 48.2176L18.2586 49.2281L17.3866 50.1001L18.0453 50.378L18.6292 49.7942L19.8352 48.589L20.8551 47.5682L22.0603 46.3631L23.0801 45.3432L24.2862 44.1371L25.3061 43.1172L26.5112 41.9121L27.5311 40.8913L28.7288 39.6852ZM19.8352 50.8038L23.5536 46.1582L22.7096 47.0012L21.5045 48.2166L20.4846 49.2272L19.2785 50.4426L18.9538 50.7579L19.6023 51.0358L19.8343 50.8131V50.8038H19.8352Z" fill="#BAD1FF"/>
<path d="M51.2719 27.3521V28.2793L50.994 28.5572L49.7879 29.7633L48.768 30.7831L47.5619 31.9883L46.543 33.0091L45.3369 34.2143L44.3171 35.2332L43.111 36.4402L42.0911 37.4591L40.9224 38.6278L40.3292 38.2844L40.5145 38.0991L41.5353 37.0886L42.7404 35.8741L43.7603 34.8533L44.9664 33.6482L45.9863 32.6283L47.1924 31.4316L48.2113 30.4023L49.4174 29.2065L50.4373 28.1857L51.2719 27.3521Z" fill="#BAD1FF"/>
<path d="M51.2718 25.1262V26.0535L50.9939 26.3314L49.7878 27.5374L48.768 28.5573L47.5619 29.7634L46.5429 30.7833L45.3369 31.9884L44.317 33.0092L43.1109 34.2144L42.091 35.2333L40.8859 36.4403L39.8651 37.4593L39.5133 37.8036L38.9285 37.4593L39.3093 37.0887L40.5144 35.8742L41.5352 34.8534L42.7404 33.6483L43.7603 32.6284L44.9663 31.4317L45.9862 30.4025L47.1923 29.2067L48.2112 28.1858L49.4173 26.9713L50.4372 25.9599L51.2718 25.1262Z" fill="#BAD1FF"/>
<path d="M51.2721 22.9003V23.8276L50.9942 24.1064L49.7881 25.3115L48.7682 26.3314L47.5621 27.5375L46.5432 28.5574L45.3371 29.7635L44.3172 30.7833L43.1111 31.9885L42.0913 33.0093L40.8861 34.2144L39.8653 35.2334L38.6602 36.4404L38.1128 36.9775L37.5289 36.635L38.2896 35.8743L39.3095 34.8535L40.5147 33.6484L41.5355 32.6285L42.7406 31.4318L43.6772 30.4858L42.5366 30.3286L42.0913 30.7833L40.8861 31.9885L39.8653 33.0093L38.6602 34.2144L37.6403 35.2334L36.713 36.1616L36.1283 35.8182L37.0836 34.8535L38.2896 33.6484L39.3095 32.6285L40.5147 31.4318L41.5355 30.4025L41.7207 30.2173L40.5886 30.0591L39.8653 30.7833L38.6602 31.9885L37.6403 33.0093L36.4342 34.2144L35.4143 35.2334L35.3123 35.3363L34.7191 34.9929L34.8576 34.8535L36.0637 33.6484L37.0836 32.6285L38.2896 31.4318L39.3095 30.4025L39.7727 29.9384L38.633 29.7812L37.6403 30.7833L36.4342 31.9885L35.4143 33.0093L34.2092 34.2144L33.9032 34.511L33.3184 34.1676L33.8387 33.6484L34.8576 32.6285L36.0637 31.4318L37.0836 30.4025L37.8256 29.6699L36.685 29.5118L36.4342 29.7635L35.4143 30.7833L34.2092 31.9885L33.1893 33.0093L31.9832 34.2144L30.9634 35.2334L29.7582 36.4404L28.7374 37.4593L27.5323 38.6645L26.5114 39.6853L25.3063 40.8904L24.2864 41.9112L23.0803 43.1164L22.0605 44.1363L20.8553 45.3423L19.8354 46.3622L18.6294 47.5674L17.6095 48.5882L16.4783 49.7194L15.8196 49.4406L16.0329 49.2282L17.0537 48.2167L18.2588 47.0022L19.2787 45.9824L20.4848 44.7772L21.5047 43.7564L22.7098 42.5606L23.7297 41.5304L24.9358 40.3346L25.9557 39.3148L27.1608 38.0993L28.1816 37.0888L29.3868 35.8743L30.4066 34.8535L31.6127 33.6484L32.6326 32.6285L33.8387 31.4318L34.8576 30.4025L35.8691 29.3911L34.7369 29.2339L34.2092 29.7635L33.1893 30.7833L31.9832 31.9885L30.9634 33.0093L29.7582 34.2144L28.7374 35.2334L27.5323 36.4404L26.5114 37.4593L25.3063 38.6645L24.2864 39.6853L23.0803 40.8904L22.0605 41.9112L20.8553 43.1164L19.8354 44.1363L18.6294 45.3423L17.6095 46.3622L16.4044 47.5674L15.3835 48.5882L14.911 49.0513L14.2617 48.7735L14.8278 48.2167L16.0329 47.0022L17.0537 45.9824L18.2588 44.7772L19.2787 43.7564L20.4848 42.5606L21.5047 41.5304L22.7098 40.3346L23.7297 39.3148L24.9358 38.0993L25.9557 37.0888L27.1608 35.8743L28.1816 34.8535L29.3868 33.6484L30.4066 32.6285L31.6127 31.4318L32.6326 30.4025L33.8387 29.2067L33.921 29.1225L33.1977 29.0215L30.7032 31.0425L29.7582 31.9885L28.7374 33.0093L27.5323 34.2144L26.5114 35.2334L25.3063 36.4404L24.2864 37.4593L23.0803 38.6645L22.0605 39.6853L20.8553 40.8904L19.8354 41.9112L18.6294 43.1164L17.6095 44.1363L16.4044 45.3423L15.3835 46.3622L14.1784 47.5674L13.3531 48.3936L12.6944 48.1147L13.8069 47.0022L14.8278 45.9824L16.0329 44.7772L17.0537 43.7564L18.2588 42.5606L19.2787 41.5304L20.4848 40.3346L21.5047 39.3148L22.7098 38.0993L23.7297 37.0888L24.9358 35.8743L25.8537 34.9648L19.3433 40.2224H19.2974L18.6294 40.8904L17.6095 41.9112L16.4044 43.1164L15.3835 44.1363L14.1784 45.3423L13.1585 46.3622L11.9524 47.5674L11.1178 48.4029L8.80953 49.784L9.35596 49.2282L10.3758 48.2167L11.5819 47.0022L12.6018 45.9824L13.8069 44.7772L14.8278 43.7564L16.0329 42.5606L17.0537 41.5304L18.2588 40.3346L18.4909 40.0932L17.3597 39.9267L16.4044 40.8904L15.3835 41.9112L14.1784 43.1164L13.1585 44.1363L11.9524 45.3423L10.9326 46.3622L9.72648 47.5674L8.70754 48.5882L7.50147 49.7933L6.48158 50.8132L5.58147 51.704L3.27317 53.0859L3.69984 52.6593L4.90498 51.4626L5.92485 50.4427L7.13093 49.2282L8.15082 48.2167L9.35596 47.0022L10.3758 45.9824L11.5819 44.7772L12.6018 43.7564L13.8069 42.5606L14.8278 41.5304L16.0329 40.3346L16.5522 39.806L15.421 39.6385L15.3835 39.6853L14.1784 40.8904L13.1585 41.9112L11.9524 43.1164L10.9326 44.1363L9.72648 45.3423L8.70754 46.3622L7.50147 47.5674L6.48158 48.5882L5.27551 49.7933L4.25562 50.8132L3.05049 52.0193L2.02967 53.0392L1.70593 53.3629V52.4263L2.67902 51.4626L3.69984 50.4427L4.90498 49.2282L5.92485 48.2167L7.13093 47.0022L8.15082 45.9824L9.35596 44.7772L10.3758 43.7564L11.5819 42.5606L12.6018 41.5304L13.8069 40.3346L14.6144 39.5187L13.4916 39.3513L13.1585 39.6853L11.9524 40.8904L10.9326 41.9112L9.72648 43.1164L8.70754 44.1363L7.50147 45.3423L6.48158 46.3622L5.27551 47.5674L4.25562 48.5882L3.05049 49.7933L2.02967 50.8132L1.70593 51.1388V50.2022L2.67902 49.2282L3.69984 48.2167L4.90498 47.0022L5.92485 45.9824L7.13093 44.7772L8.15082 43.7564L9.35596 42.5606L10.3758 41.5304L11.5819 40.3346L12.6018 39.3148L12.6757 39.2315L12.3239 39.1753L1.70593 49.3947V40.3431L11.9899 31.4046L18.5555 34.7618L19.0654 35.021L19.4453 34.5943L33.3652 19.1913L43.492 24.5967L44.1133 24.9317L44.4744 24.3188L51.2721 12.8943V19.3766L48.6756 23.2624L49.4175 22.5204L50.4374 21.5006L51.2721 20.6753V21.6016L50.9942 21.8805L49.7881 23.0856L48.7682 24.1064L47.5621 25.3115L46.8117 26.0535L44.2152 29.9478L44.9666 29.2067L45.9865 28.1859L47.1925 26.9714L48.2115 25.96L49.4175 24.7455L50.4374 23.7265L51.2721 22.9003Z" fill="#BAD1FF"/>
<path d="M51.0126 29.8279L48.7502 33.0269L47.5619 34.2143L46.5429 35.2332L45.3369 36.4403L44.317 37.4592L43.1109 38.6643L42.3231 39.4531L41.7383 39.1106L42.7404 38.0992L43.7603 37.0887L44.9664 35.8742L45.9862 34.8534L47.1923 33.6482L48.2112 32.6283L49.4173 31.4316L50.4372 30.4024L51.0126 29.8279Z" fill="#BAD1FF"/>
<path d="M45.5877 37.478L43.6396 40.2224L43.139 39.9267L43.7603 39.3148L44.9664 38.0993L45.5877 37.478Z" fill="#BAD1FF"/>
<path d="M32.4471 35.0481L28.7288 39.6853L27.5321 40.8904L26.5113 41.9112L25.3061 43.1164L24.2862 44.1362L23.0801 45.3423L22.0603 46.3622L20.8551 47.5673L19.8352 48.5882L18.6292 49.7933L18.0453 50.3772L17.3866 50.0993L18.2586 49.2282L19.2785 48.2167L20.4846 47.0022L21.5045 45.9823L22.7096 44.7772L23.7295 43.7564L24.9356 42.5606L25.9555 41.5304L27.1606 40.3346L28.1814 39.3147L29.3866 38.0993L30.4064 37.0888L31.6125 35.8743L32.4471 35.0481Z" fill="#BAD1FF"/>
<path d="M23.5534 46.1582L19.835 50.8038V50.8132L19.603 51.0359L18.9536 50.758L19.2783 50.4426L20.4844 49.2281L21.5042 48.2167L22.7094 47.0022L23.5534 46.1582Z" fill="#BAD1FF"/>
<path d="M50.9694 0C40.3793 0 31.7635 8.61574 31.7635 19.2058C31.7635 29.7959 40.3793 38.4117 50.9694 38.4117C61.5595 38.4117 70.1752 29.7959 70.1752 19.2058C70.1752 8.61574 61.5595 0 50.9694 0ZM35.6047 19.2058C35.6047 17.4792 35.9043 15.8218 36.4325 14.2719L39.4459 17.2852L43.287 21.1264V24.9676L47.1282 28.8088L49.0488 30.7293V34.438C41.4836 33.4873 35.6047 27.0264 35.6047 19.2058ZM63.1267 28.5648C61.8725 27.5546 59.9712 26.8882 58.6517 26.8882V24.9676C58.6517 22.8473 56.9309 21.1264 54.8105 21.1264H47.1282V17.2852V15.3647C49.2485 15.3647 50.9694 13.6438 50.9694 11.5235V9.60292H52.89C55.0103 9.60292 56.7311 7.88207 56.7311 5.76175V4.97239C62.3546 7.25596 66.334 12.7719 66.334 19.2058C66.334 22.7301 65.1298 25.9701 63.1267 28.5648Z" fill="#568EFF"/>
</svg>
