<svg width="63" height="64" viewBox="0 0 63 64" fill="none" xmlns="http://www.w3.org/2000/svg">
<rect y="22" width="49" height="42" fill="#BAD1FF"/>
<path d="M55.2296 55.5413L52.2336 54.3442V55.1673H9.25825V16.8617H10.0822L8.88342 13.8657L7.6864 16.8617H8.50946V55.1673V55.5413V55.9161H52.2336V56.74L55.2296 55.5413Z" fill="#558DFD"/>
<g clip-path="url(#clip0)">
<path d="M30 40.4644H19L20.5714 35.7501L22.1429 34.9644H26.8571L27.6429 35.7501L30 36.5358V40.4644Z" fill="#F2F4F6"/>
<path d="M52 32.6071L41 40.4643L37.8571 36.5357L38.6429 35.75L49.6429 27.8928L52 32.6071Z" fill="#558DFD"/>
<path d="M31.5714 27.8928L20.5714 35.75H27.6429L38.6429 27.8928H31.5714Z" fill="#BAD1FF"/>
<path d="M53.5714 27.8928L42.5714 35.75L43.3572 36.5357H48.8572L49.6429 35.75L60.6429 27.8928H53.5714Z" fill="#BAD1FF"/>
<path d="M41 32.6071L30 40.4643L27.6429 35.75L38.6429 27.8928L41 32.6071Z" fill="#558DFD"/>
<path d="M41 40.4644H30L31.5714 35.7501L33.1429 34.9644H37.8571L38.6429 35.7501L41 40.4644Z" fill="#F2F4F6"/>
<path d="M63 32.6071L52 40.4643L48.8571 36.5357L49.6429 35.75L60.6429 27.8928L63 32.6071Z" fill="#558DFD"/>
<path d="M42.5714 27.8928L31.5714 35.75H38.6428L49.6428 27.8928H42.5714Z" fill="#BAD1FF"/>
<path d="M52 40.4643H41L42.5714 35.75H49.6429L52 40.4643Z" fill="#F2F4F6"/>
<path d="M58.2857 25.5358L47.2857 33.393L44.1429 29.4644L44.9286 28.6787L55.9286 20.8215L58.2857 25.5358Z" fill="#558DFD"/>
<path d="M37.8571 20.8215L26.8571 28.6787L28.4286 29.4644H33.1429L33.9286 28.6787L44.9286 20.8215H37.8571Z" fill="#BAD1FF"/>
<path d="M47.2857 25.5358L36.2857 33.393L33.1429 29.4644L33.9286 28.6787L44.9286 20.8215L47.2857 25.5358Z" fill="#558DFD"/>
<path d="M38.1713 5.74125L37.0714 3.53564L35.9715 5.74125C35.6676 6.35125 35.1727 6.84616 34.5627 7.15001L32.3571 8.24993L34.5627 9.34985C35.1727 9.6537 35.6676 10.1486 35.9715 10.7586L37.0714 12.9642L38.1713 10.7586C38.4752 10.1486 38.9701 9.6537 39.5801 9.34985L41.7857 8.24993L39.5801 7.15001C38.9701 6.84616 38.4752 6.35125 38.1713 5.74125Z" fill="#BAD1FF"/>
<path d="M59.9906 11.6597L59.0714 9.82129L58.1522 11.6597C57.899 12.1665 57.4881 12.5774 56.9813 12.8306L55.1429 13.7499L56.9813 14.6691C57.4881 14.9223 57.899 15.3332 58.1522 15.84L59.0714 17.6784L59.9906 15.84C60.2439 15.3332 60.6547 14.9223 61.1615 14.6691L63 13.7499L61.1615 12.8306C60.6547 12.5774 60.2439 12.1665 59.9906 11.6597Z" fill="#BAD1FF"/>
<path d="M24.6335 19.5169L23.7143 17.6785L22.7951 19.5169C22.5418 20.0237 22.131 20.4346 21.6242 20.6878L19.7857 21.607L21.6242 22.5263C22.131 22.7795 22.5418 23.1904 22.7951 23.6972L23.7143 25.5356L24.6335 23.6972C24.8867 23.1904 25.2976 22.7795 25.8044 22.5263L27.6428 21.607L25.8044 20.6878C25.2976 20.4346 24.8867 20.0237 24.6335 19.5169Z" fill="#BAD1FF"/>
<path d="M48.8571 20.8213L37.8571 28.6784L38.6429 29.4641H44.1429L44.9286 28.6784L55.9286 20.8213H48.8571Z" fill="#BAD1FF"/>
<path d="M42.5714 14.5356L31.5714 22.3928L33.1428 23.1785H37.0714L38.6428 22.3928L49.6428 14.5356H42.5714Z" fill="#BAD1FF"/>
<path d="M52 19.2499L41 27.1071L37.8571 23.1785L38.6429 22.3928L49.6429 14.5356L52 19.2499Z" fill="#558DFD"/>
<path d="M47.2857 33.393H36.2857L37.8571 28.6787H44.9286L47.2857 33.393Z" fill="#F2F4F6"/>
<path d="M36.2857 33.393H25.2857L26.8571 28.6787H33.9286L36.2857 33.393Z" fill="#F2F4F6"/>
<path d="M41 27.1071H30L31.5714 22.3928H38.6429L41 27.1071Z" fill="#F2F4F6"/>
</g>
<defs>
<clipPath id="clip0">
<rect width="44" height="44" fill="white" transform="translate(19)"/>
</clipPath>
</defs>
</svg>
