<svg width="69" height="67" viewBox="0 0 69 67" fill="none" xmlns="http://www.w3.org/2000/svg">
<rect y="16.72" width="50.1699" height="50.1699" fill="#BAD1FF"/>
<path d="M68.5515 52.7515L65.1789 51.4035V52.3307H16.8167V9.2236H17.7439L16.3949 5.85205L15.0479 9.2236H15.9741V52.3307V52.7515V53.1733H65.1789V54.1005L68.5515 52.7515Z" fill="#568EFF"/>
<path d="M35.5171 41.8213C36.9234 41.8213 38.0635 40.6813 38.0635 39.2749C38.0635 37.8686 36.9234 36.7285 35.5171 36.7285C34.1108 36.7285 32.9707 37.8686 32.9707 39.2749C32.9707 40.6813 34.1108 41.8213 35.5171 41.8213Z" fill="#568EFF"/>
<path d="M22.7814 43.1548C21.1651 43.1548 19.8491 44.4707 19.8491 46.0861C19.8491 47.7014 21.1651 49.0173 22.7814 49.0173C24.3977 49.0173 25.7136 47.7014 25.7136 46.0861C25.7136 44.4707 24.3977 43.1548 22.7814 43.1548Z" fill="#568EFF"/>
<path d="M26.8673 38.1933C27.6756 38.1933 28.3309 37.5379 28.3309 36.7295C28.3309 35.9212 27.6756 35.2659 26.8673 35.2659C26.0589 35.2659 25.4036 35.9212 25.4036 36.7295C25.4036 37.5379 26.0589 38.1933 26.8673 38.1933Z" fill="#568EFF"/>
<path d="M53.1692 14.7135C60.4818 14.7135 67.8827 12.1865 67.8827 7.35675C67.8827 2.52704 60.4818 0 53.1692 0C45.8566 0 38.4557 2.52704 38.4557 7.35675C38.4557 12.1865 45.8566 14.7135 53.1692 14.7135Z" fill="#558DFD"/>
<path d="M38.4558 14.7135C38.4558 19.5432 45.8567 22.0703 53.1693 22.0703C60.4819 22.0703 67.8828 19.5432 67.8828 14.7135V11.0352C67.8828 15.8649 60.4819 18.3919 53.1693 18.3919C45.8567 18.3919 38.4558 15.8649 38.4558 11.0352V14.7135Z" fill="#558DFD"/>
<path d="M38.4558 22.0702C38.4558 26.8999 45.8567 29.427 53.1693 29.427C60.4819 29.427 67.8828 26.8999 67.8828 22.0702V18.3918C67.8828 23.2215 60.4819 25.7486 53.1693 25.7486C45.8567 25.7486 38.4558 23.2215 38.4558 18.3918V22.0702Z" fill="#558DFD"/>
<path d="M38.4558 29.4269C38.4558 34.2566 45.8567 36.7837 53.1693 36.7837C60.4819 36.7837 67.8828 34.2566 67.8828 29.4269V25.7485C67.8828 30.5782 60.4819 33.1053 53.1693 33.1053C45.8567 33.1053 38.4558 30.5782 38.4558 25.7485V29.4269Z" fill="#558DFD"/>
</svg>
