<svg width="176" height="61" viewBox="0 0 176 61" fill="none" xmlns="http://www.w3.org/2000/svg">
<path d="M0.5 10C0.5 4.75329 4.75329 0.5 10 0.5H166C171.247 0.5 175.5 4.75329 175.5 10V51C175.5 56.2467 171.247 60.5 166 60.5H10C4.7533 60.5 0.5 56.2467 0.5 51V10Z" stroke="white"/>
<path d="M65.1191 23.3398C65.0215 24.2383 64.6992 24.9258 64.1523 25.4023C63.6094 25.8789 62.8848 26.1172 61.9785 26.1172C61.3457 26.1172 60.7852 25.959 60.2969 25.6426C59.8125 25.3262 59.4375 24.8789 59.1719 24.3008C58.9062 23.7188 58.7715 23.0547 58.7676 22.3086V21.2012C58.7676 20.4434 58.9004 19.7715 59.166 19.1855C59.4316 18.5996 59.8125 18.1484 60.3086 17.832C60.8086 17.5117 61.3828 17.3516 62.0312 17.3516C62.9453 17.3516 63.666 17.5996 64.1934 18.0957C64.7246 18.5879 65.0332 19.2695 65.1191 20.1406H64.3926C64.2129 18.6914 63.4258 17.9668 62.0312 17.9668C61.2578 17.9668 60.6406 18.2559 60.1797 18.834C59.7227 19.4121 59.4941 20.2109 59.4941 21.2305V22.2734C59.4941 23.2578 59.7168 24.043 60.1621 24.6289C60.6113 25.2148 61.2168 25.5078 61.9785 25.5078C62.7324 25.5078 63.3008 25.3281 63.6836 24.9688C64.0664 24.6055 64.3027 24.0625 64.3926 23.3398H65.1191ZM68.4297 23.0938H67.457V26H66.748V19.6602H67.457V22.4727H68.418L70.7441 19.6602H71.6289L69.0273 22.7363L71.916 26H70.9902L68.4297 23.0938ZM76.9316 26C76.8613 25.8008 76.8164 25.5059 76.7969 25.1152C76.5508 25.4355 76.2363 25.6836 75.8535 25.8594C75.4746 26.0312 75.0723 26.1172 74.6465 26.1172C74.0371 26.1172 73.543 25.9473 73.1641 25.6074C72.7891 25.2676 72.6016 24.8379 72.6016 24.3184C72.6016 23.7012 72.8574 23.2129 73.3691 22.8535C73.8848 22.4941 74.6016 22.3145 75.5195 22.3145H76.791V21.5938C76.791 21.1406 76.6504 20.7852 76.3691 20.5273C76.0918 20.2656 75.6855 20.1348 75.1504 20.1348C74.6621 20.1348 74.2578 20.2598 73.9375 20.5098C73.6172 20.7598 73.457 21.0605 73.457 21.4121L72.7539 21.4062C72.7539 20.9023 72.9883 20.4668 73.457 20.0996C73.9258 19.7285 74.502 19.543 75.1855 19.543C75.8926 19.543 76.4492 19.7207 76.8555 20.0762C77.2656 20.4277 77.4766 20.9199 77.4883 21.5527V24.5527C77.4883 25.166 77.5527 25.625 77.6816 25.9297V26H76.9316ZM74.7285 25.4961C75.1973 25.4961 75.6152 25.3828 75.9824 25.1562C76.3535 24.9297 76.623 24.627 76.791 24.248V22.8535H75.5371C74.8379 22.8613 74.291 22.9902 73.8965 23.2402C73.502 23.4863 73.3047 23.8262 73.3047 24.2598C73.3047 24.6152 73.4355 24.9102 73.6973 25.1445C73.9629 25.3789 74.3066 25.4961 74.7285 25.4961ZM83.875 26H83.1719V23.334C82.5938 23.5449 82.041 23.6504 81.5137 23.6504C80.6738 23.6504 80.0645 23.4668 79.6855 23.0996C79.3066 22.7285 79.1094 22.1523 79.0938 21.3711V19.6602H79.791V21.3359C79.7988 21.9414 79.9316 22.3789 80.1895 22.6484C80.4512 22.9141 80.8926 23.0469 81.5137 23.0469C82.0801 23.0312 82.6328 22.9297 83.1719 22.7422V19.6602H83.875V26ZM89.752 26C89.6816 25.8008 89.6367 25.5059 89.6172 25.1152C89.3711 25.4355 89.0566 25.6836 88.6738 25.8594C88.2949 26.0312 87.8926 26.1172 87.4668 26.1172C86.8574 26.1172 86.3633 25.9473 85.9844 25.6074C85.6094 25.2676 85.4219 24.8379 85.4219 24.3184C85.4219 23.7012 85.6777 23.2129 86.1895 22.8535C86.7051 22.4941 87.4219 22.3145 88.3398 22.3145H89.6113V21.5938C89.6113 21.1406 89.4707 20.7852 89.1895 20.5273C88.9121 20.2656 88.5059 20.1348 87.9707 20.1348C87.4824 20.1348 87.0781 20.2598 86.7578 20.5098C86.4375 20.7598 86.2773 21.0605 86.2773 21.4121L85.5742 21.4062C85.5742 20.9023 85.8086 20.4668 86.2773 20.0996C86.7461 19.7285 87.3223 19.543 88.0059 19.543C88.7129 19.543 89.2695 19.7207 89.6758 20.0762C90.0859 20.4277 90.2969 20.9199 90.3086 21.5527V24.5527C90.3086 25.166 90.373 25.625 90.502 25.9297V26H89.752ZM87.5488 25.4961C88.0176 25.4961 88.4355 25.3828 88.8027 25.1562C89.1738 24.9297 89.4434 24.627 89.6113 24.248V22.8535H88.3574C87.6582 22.8613 87.1113 22.9902 86.7168 23.2402C86.3223 23.4863 86.125 23.8262 86.125 24.2598C86.125 24.6152 86.2559 24.9102 86.5176 25.1445C86.7832 25.3789 87.127 25.4961 87.5488 25.4961ZM96.6426 20.2578H94.334V26H93.6309V20.2578H91.4102V19.6602H96.6426V20.2578ZM98.5703 21.9629H100.398C100.867 21.9629 101.277 22.0488 101.629 22.2207C101.984 22.3887 102.252 22.623 102.432 22.9238C102.615 23.2246 102.707 23.5742 102.707 23.9727C102.707 24.5859 102.496 25.0781 102.074 25.4492C101.656 25.8164 101.09 26 100.375 26H97.873V19.6602H98.5703V21.9629ZM98.5703 22.5605V25.4082H100.387C100.891 25.4082 101.285 25.2812 101.57 25.0273C101.859 24.7734 102.004 24.4258 102.004 23.9844C102.004 23.5625 101.863 23.2227 101.582 22.9648C101.305 22.7031 100.924 22.5684 100.439 22.5605H98.5703ZM59.1172 43V34.5469H62.5469C63.7031 34.5469 64.5833 34.75 65.1875 35.1562C65.7917 35.5573 66.0938 36.1354 66.0938 36.8906C66.0938 37.2812 65.9714 37.6328 65.7266 37.9453C65.487 38.2526 65.1302 38.4896 64.6562 38.6562C65.2083 38.7708 65.6458 39.0026 65.9688 39.3516C66.2917 39.7005 66.4531 40.112 66.4531 40.5859C66.4531 41.3724 66.1615 41.9714 65.5781 42.3828C65 42.7943 64.1667 43 63.0781 43H59.1172ZM61.0156 39.3984V41.5H63.0938C64.0677 41.5 64.5547 41.151 64.5547 40.4531C64.5547 39.75 64.0599 39.3984 63.0703 39.3984H61.0156ZM61.0156 38.0391H62.5781C63.6562 38.0391 64.1953 37.7214 64.1953 37.0859C64.1953 36.4193 63.6849 36.0755 62.6641 36.0547H61.0156V38.0391ZM80.9844 41.5234C80.5729 42.0599 80.0026 42.4661 79.2734 42.7422C78.5443 43.0182 77.7161 43.1562 76.7891 43.1562C75.8359 43.1562 74.9922 42.9401 74.2578 42.5078C73.5234 42.0755 72.9557 41.4583 72.5547 40.6562C72.1589 39.849 71.9531 38.9089 71.9375 37.8359V36.9453C71.9375 35.2266 72.349 33.8854 73.1719 32.9219C73.9948 31.9531 75.1432 31.4688 76.6172 31.4688C77.8828 31.4688 78.888 31.7812 79.6328 32.4062C80.3776 33.0312 80.8255 33.9323 80.9766 35.1094H79.0391C78.8203 33.7396 78.026 33.0547 76.6562 33.0547C75.7708 33.0547 75.0964 33.375 74.6328 34.0156C74.1745 34.651 73.9375 35.5859 73.9219 36.8203V37.6953C73.9219 38.9245 74.1797 39.8802 74.6953 40.5625C75.2161 41.2396 75.9375 41.5781 76.8594 41.5781C77.8698 41.5781 78.5885 41.349 79.0156 40.8906V38.6641H76.6719V37.1641H80.9844V41.5234ZM82.6172 38.6953C82.6172 37.8672 82.7812 37.1224 83.1094 36.4609C83.4375 35.7943 83.8984 35.2839 84.4922 34.9297C85.0859 34.5703 85.7682 34.3906 86.5391 34.3906C87.6797 34.3906 88.6042 34.7578 89.3125 35.4922C90.026 36.2266 90.4115 37.2005 90.4688 38.4141L90.4766 38.8594C90.4766 39.6927 90.3151 40.4375 89.9922 41.0938C89.6745 41.75 89.2161 42.2578 88.6172 42.6172C88.0234 42.9766 87.3359 43.1562 86.5547 43.1562C85.362 43.1562 84.4062 42.7604 83.6875 41.9688C82.974 41.1719 82.6172 40.112 82.6172 38.7891V38.6953ZM84.5156 38.8594C84.5156 39.7292 84.6953 40.4115 85.0547 40.9062C85.4141 41.3958 85.9141 41.6406 86.5547 41.6406C87.1953 41.6406 87.6927 41.3906 88.0469 40.8906C88.4062 40.3906 88.5859 39.6589 88.5859 38.6953C88.5859 37.8411 88.401 37.1641 88.0312 36.6641C87.6667 36.1641 87.1693 35.9141 86.5391 35.9141C85.9193 35.9141 85.4271 36.1615 85.0625 36.6562C84.6979 37.1458 84.5156 37.8802 84.5156 38.8594ZM91.7266 38.6953C91.7266 37.8672 91.8906 37.1224 92.2188 36.4609C92.5469 35.7943 93.0078 35.2839 93.6016 34.9297C94.1953 34.5703 94.8776 34.3906 95.6484 34.3906C96.7891 34.3906 97.7135 34.7578 98.4219 35.4922C99.1354 36.2266 99.5208 37.2005 99.5781 38.4141L99.5859 38.8594C99.5859 39.6927 99.4245 40.4375 99.1016 41.0938C98.7839 41.75 98.3255 42.2578 97.7266 42.6172C97.1328 42.9766 96.4453 43.1562 95.6641 43.1562C94.4714 43.1562 93.5156 42.7604 92.7969 41.9688C92.0833 41.1719 91.7266 40.112 91.7266 38.7891V38.6953ZM93.625 38.8594C93.625 39.7292 93.8047 40.4115 94.1641 40.9062C94.5234 41.3958 95.0234 41.6406 95.6641 41.6406C96.3047 41.6406 96.8021 41.3906 97.1562 40.8906C97.5156 40.3906 97.6953 39.6589 97.6953 38.6953C97.6953 37.8411 97.5104 37.1641 97.1406 36.6641C96.776 36.1641 96.2786 35.9141 95.6484 35.9141C95.0286 35.9141 94.5365 36.1615 94.1719 36.6562C93.8073 37.1458 93.625 37.8802 93.625 38.8594ZM100.859 38.7109C100.859 37.3984 101.167 36.3516 101.781 35.5703C102.401 34.7839 103.221 34.3906 104.242 34.3906C105.206 34.3906 105.964 34.7266 106.516 35.3984L106.602 34.5469H108.312V42.7422C108.312 43.8516 107.966 44.7266 107.273 45.3672C106.586 46.0078 105.656 46.3281 104.484 46.3281C103.865 46.3281 103.258 46.1979 102.664 45.9375C102.076 45.6823 101.628 45.3464 101.32 44.9297L102.219 43.7891C102.802 44.4818 103.521 44.8281 104.375 44.8281C105.005 44.8281 105.503 44.6562 105.867 44.3125C106.232 43.974 106.414 43.474 106.414 42.8125V42.2422C105.867 42.8516 105.138 43.1562 104.227 43.1562C103.237 43.1562 102.427 42.763 101.797 41.9766C101.172 41.1901 100.859 40.1016 100.859 38.7109ZM102.75 38.875C102.75 39.724 102.922 40.3932 103.266 40.8828C103.615 41.3672 104.096 41.6094 104.711 41.6094C105.477 41.6094 106.044 41.2812 106.414 40.625V36.9062C106.055 36.2656 105.492 35.9453 104.727 35.9453C104.102 35.9453 103.615 36.1927 103.266 36.6875C102.922 37.1823 102.75 37.9115 102.75 38.875ZM112.289 43H110.391V31H112.289V43ZM118.086 43.1562C116.883 43.1562 115.906 42.7786 115.156 42.0234C114.411 41.263 114.039 40.2526 114.039 38.9922V38.7578C114.039 37.9141 114.201 37.1615 114.523 36.5C114.852 35.8333 115.31 35.3151 115.898 34.9453C116.487 34.5755 117.143 34.3906 117.867 34.3906C119.018 34.3906 119.906 34.7578 120.531 35.4922C121.161 36.2266 121.477 37.2656 121.477 38.6094V39.375H115.953C116.01 40.0729 116.242 40.625 116.648 41.0312C117.06 41.4375 117.576 41.6406 118.195 41.6406C119.065 41.6406 119.773 41.2891 120.32 40.5859L121.344 41.5625C121.005 42.0677 120.552 42.4609 119.984 42.7422C119.422 43.0182 118.789 43.1562 118.086 43.1562ZM117.859 35.9141C117.339 35.9141 116.917 36.0964 116.594 36.4609C116.276 36.8255 116.073 37.3333 115.984 37.9844H119.602V37.8438C119.56 37.2083 119.391 36.7292 119.094 36.4062C118.797 36.0781 118.385 35.9141 117.859 35.9141ZM129.102 38.7734V43H127.125V31.625H131.477C132.747 31.625 133.755 31.9557 134.5 32.6172C135.25 33.2786 135.625 34.1536 135.625 35.2422C135.625 36.3568 135.258 37.224 134.523 37.8438C133.794 38.4635 132.771 38.7734 131.453 38.7734H129.102ZM129.102 37.1875H131.477C132.18 37.1875 132.716 37.0234 133.086 36.6953C133.456 36.362 133.641 35.8828 133.641 35.2578C133.641 34.6432 133.453 34.1536 133.078 33.7891C132.703 33.4193 132.188 33.2292 131.531 33.2188H129.102V37.1875ZM139.195 43H137.297V31H139.195V43ZM146.32 43C146.237 42.8385 146.164 42.5755 146.102 42.2109C145.497 42.8411 144.758 43.1562 143.883 43.1562C143.034 43.1562 142.341 42.9141 141.805 42.4297C141.268 41.9453 141 41.3464 141 40.6328C141 39.7318 141.333 39.0417 142 38.5625C142.672 38.0781 143.63 37.8359 144.875 37.8359H146.039V37.2812C146.039 36.8438 145.917 36.4948 145.672 36.2344C145.427 35.9688 145.055 35.8359 144.555 35.8359C144.122 35.8359 143.768 35.9453 143.492 36.1641C143.216 36.3776 143.078 36.651 143.078 36.9844H141.18C141.18 36.5208 141.333 36.0885 141.641 35.6875C141.948 35.2812 142.365 34.9635 142.891 34.7344C143.422 34.5052 144.013 34.3906 144.664 34.3906C145.654 34.3906 146.443 34.6406 147.031 35.1406C147.62 35.6354 147.922 36.3333 147.938 37.2344V41.0469C147.938 41.8073 148.044 42.4141 148.258 42.8672V43H146.32ZM144.234 41.6328C144.609 41.6328 144.961 41.5417 145.289 41.3594C145.622 41.1771 145.872 40.9323 146.039 40.625V39.0312H145.016C144.312 39.0312 143.784 39.1536 143.43 39.3984C143.076 39.6432 142.898 39.9896 142.898 40.4375C142.898 40.8021 143.018 41.0938 143.258 41.3125C143.503 41.526 143.828 41.6328 144.234 41.6328ZM152.758 40.2812L154.477 34.5469H156.5L153.141 44.2812C152.625 45.7031 151.75 46.4141 150.516 46.4141C150.24 46.4141 149.935 46.3672 149.602 46.2734V44.8047L149.961 44.8281C150.44 44.8281 150.799 44.7396 151.039 44.5625C151.284 44.3906 151.477 44.099 151.617 43.6875L151.891 42.9609L148.922 34.5469H150.969L152.758 40.2812Z" fill="white"/>
<g clip-path="url(#clip0)">
<path d="M23.4706 26.0979C23.0398 26.0979 22.6743 26.2481 22.3739 26.5485C22.0735 26.849 21.9232 27.2095 21.9232 27.6302V34.0905C21.9232 34.5218 22.0734 34.887 22.3739 35.1874C22.6743 35.4879 23.0398 35.6381 23.4706 35.6381C23.901 35.6381 24.2642 35.4879 24.56 35.1874C24.8552 34.887 25.0032 34.5218 25.0032 34.0905V27.6302C25.0032 27.2094 24.853 26.849 24.5525 26.5485C24.252 26.2481 23.8913 26.0979 23.4706 26.0979Z" fill="white"/>
<path d="M35.9106 20.2985L36.9773 18.3307C37.0474 18.2004 37.0224 18.1005 36.9024 18.0302C36.7721 17.9697 36.6719 18.0004 36.602 18.1201L35.5203 20.1037C34.5685 19.6829 33.5619 19.4721 32.5004 19.4721C31.4386 19.4721 30.4319 19.6829 29.4805 20.1037L28.3988 18.1201C28.3285 18.0004 28.2284 17.9699 28.0984 18.0302C27.978 18.1008 27.9531 18.2004 28.0234 18.3307L29.0902 20.2985C28.0085 20.8501 27.147 21.6183 26.506 22.6049C25.865 23.592 25.5444 24.6706 25.5444 25.8428H39.4413C39.4413 24.6709 39.1206 23.5922 38.4796 22.6049C37.8386 21.6183 36.9821 20.8501 35.9106 20.2985ZM29.7433 23.1607C29.6279 23.2763 29.4901 23.3339 29.33 23.3339C29.1695 23.3339 29.0345 23.2763 28.9244 23.1607C28.8143 23.0456 28.7592 22.9084 28.7592 22.7477C28.7592 22.5875 28.8143 22.45 28.9244 22.3346C29.0345 22.2196 29.1698 22.162 29.33 22.162C29.4901 22.162 29.6279 22.2196 29.7433 22.3346C29.8584 22.4503 29.9162 22.5875 29.9162 22.7477C29.9159 22.9081 29.8581 23.0456 29.7433 23.1607ZM36.0757 23.1607C35.9654 23.2763 35.8301 23.3339 35.6702 23.3339C35.5097 23.3339 35.372 23.2763 35.2568 23.1607C35.1415 23.0456 35.084 22.9084 35.084 22.7477C35.084 22.5875 35.1415 22.45 35.2568 22.3346C35.372 22.2196 35.5097 22.162 35.6702 22.162C35.8304 22.162 35.9653 22.2196 36.0757 22.3346C36.1859 22.4503 36.2409 22.5875 36.2409 22.7477C36.2409 22.9081 36.1859 23.0456 36.0757 23.1607Z" fill="white"/>
<path d="M25.6041 36.3891C25.6041 36.8503 25.7643 37.2407 26.0846 37.5611C26.4053 37.8814 26.7957 38.0416 27.2565 38.0416H28.3684L28.3836 41.4524C28.3836 41.8831 28.5338 42.2489 28.8342 42.5493C29.1347 42.8498 29.4954 43 29.9159 43C30.3464 43 30.7121 42.8498 31.0126 42.5493C31.313 42.2489 31.4632 41.8832 31.4632 41.4524V38.0419H33.5365V41.4524C33.5365 41.8831 33.6867 42.2489 33.9871 42.5493C34.2876 42.8498 34.653 43 35.0838 43C35.5142 43 35.88 42.8498 36.1804 42.5493C36.4809 42.2489 36.6311 41.8832 36.6311 41.4524V38.0419H37.7579C38.2085 38.0419 38.5939 37.8817 38.9149 37.5613C39.2352 37.241 39.3954 36.8506 39.3954 36.3895V26.3831H25.6041V36.3891Z" fill="white"/>
<path d="M41.5296 26.0979C41.1088 26.0979 40.7484 26.2459 40.4479 26.5411C40.1475 26.8368 39.9973 27.2001 39.9973 27.6302V34.0905C39.9973 34.5218 40.1474 34.887 40.4479 35.1874C40.7484 35.4879 41.1091 35.6381 41.5296 35.6381C41.9601 35.6381 42.3258 35.4879 42.6263 35.1874C42.9267 34.887 43.0769 34.5218 43.0769 34.0905V27.6302C43.0769 27.2 42.9267 26.8368 42.6263 26.5411C42.3258 26.2459 41.9601 26.0979 41.5296 26.0979Z" fill="white"/>
</g>
<defs>
<clipPath id="clip0">
<rect width="25" height="25" fill="white" transform="translate(20 18)"/>
</clipPath>
</defs>
</svg>
