<svg width="67" height="77" viewBox="0 0 67 77" fill="none" xmlns="http://www.w3.org/2000/svg">
<path d="M8.79506 67.5176H0V76.3126H8.79506V67.5176Z" fill="#BAD1FF"/>
<path d="M19.6482 67.5176H10.8522V76.3126H19.6482V67.5176Z" fill="#BAD1FF"/>
<path d="M30.5012 67.5176H21.7062V76.3126H30.5012V67.5176Z" fill="#BAD1FF"/>
<path d="M41.354 67.5176H32.558V76.3126H41.354V67.5176Z" fill="#BAD1FF"/>
<path d="M52.206 67.5176H43.4119V76.3126H52.206V67.5176Z" fill="#BAD1FF"/>
<path d="M8.79506 56.998H0V65.7931H8.79506V56.998Z" fill="#BAD1FF"/>
<path d="M19.6482 56.998H10.8522V65.7931H19.6482V56.998Z" fill="#BAD1FF"/>
<path d="M30.5012 56.998H21.7062V65.7931H30.5012V56.998Z" fill="#BAD1FF"/>
<path d="M41.354 56.998H32.558V65.7931H41.354V56.998Z" fill="#BAD1FF"/>
<path d="M52.206 56.998H43.4119V65.7931H52.206V56.998Z" fill="#BAD1FF"/>
<path d="M0 55.2731H8.79506V46.478H0V55.2731ZM0.378694 46.8567H8.41541V54.8944H0.378694V46.8567Z" fill="#558DFD"/>
<path d="M19.6482 46.478H10.8522V55.2731H19.6482V46.478Z" fill="#BAD1FF"/>
<path d="M30.5012 46.478H21.7062V55.2731H30.5012V46.478Z" fill="#BAD1FF"/>
<path d="M41.354 46.478H32.558V55.2731H41.354V46.478Z" fill="#BAD1FF"/>
<path d="M52.206 46.478H43.4119V55.2731H52.206V46.478Z" fill="#BAD1FF"/>
<path d="M0 44.7528H8.79506V35.9578H0V44.7528ZM0.378694 36.3365H8.41541V44.3732H0.378694V36.3365Z" fill="#558DFD"/>
<path d="M10.8522 44.7528H19.6482V35.9578H10.8522V44.7528ZM11.2318 36.3365H19.2685V44.3732H11.2318V36.3365Z" fill="#558DFD"/>
<path d="M30.5012 35.9578H21.7062V44.7528H30.5012V35.9578Z" fill="#BAD1FF"/>
<path d="M41.354 35.9578H32.558V44.7528H41.354V35.9578Z" fill="#BAD1FF"/>
<path d="M43.4119 44.7528H52.206V35.9578H43.4119V44.7528ZM43.7906 36.3365H51.8282V44.3732H43.7906V36.3365Z" fill="#558DFD"/>
<path d="M0 34.2326H8.79506V25.4375H0V34.2326ZM0.378694 25.8162H8.41541V33.8529H0.378694V25.8162Z" fill="#558DFD"/>
<path d="M10.8522 34.2326H19.6482V25.4375H10.8522V34.2326ZM11.2318 25.8162H19.2685V33.8529H11.2318V25.8162Z" fill="#558DFD"/>
<path d="M30.5012 25.4375H21.7062V34.2326H30.5012V25.4375Z" fill="#BAD1FF"/>
<path d="M32.558 34.2326H41.354V25.4375H32.558V34.2326ZM32.9376 25.8162H40.9743V33.8529H32.9376V25.8162Z" fill="#558DFD"/>
<path d="M43.4119 25.4375V34.2326H52.206V25.4375H43.4119ZM51.8282 33.8529H43.7906V25.8162H51.8282V33.8529Z" fill="#558DFD"/>
<path d="M51.0469 17.875L62.2188 8.9375L51.0469 0V6.70089H22V11.1696H51.0469V17.875ZM66.6875 24.5781H37.6406V17.875L26.4688 26.8125L37.6406 35.75V29.0469H66.6875V24.5781Z" fill="#558DFD"/>
</svg>
