<svg xmlns="http://www.w3.org/2000/svg" xmlns:xlink="http://www.w3.org/1999/xlink" viewBox="0 0 21.15 25"><defs><style>.cls-1{fill:none;}.cls-2{clip-path:url(#clip-path);}.cls-3{fill:#fff;}</style><clipPath id="clip-path" transform="translate(-1.92 0)"><rect class="cls-1" width="25" height="25"/></clipPath></defs><g id="Слой_2" data-name="Слой 2"><g id="Слой_1-2" data-name="Слой 1"><g class="cls-2"><path class="cls-3" d="M3.47,8.1a1.5,1.5,0,0,0-1.1.45,1.47,1.47,0,0,0-.45,1.08v6.46a1.54,1.54,0,0,0,1.55,1.55A1.52,1.52,0,0,0,5,16.09V9.63a1.47,1.47,0,0,0-.45-1.08A1.47,1.47,0,0,0,3.47,8.1Z" transform="translate(-1.92 0)"/><path class="cls-3" d="M15.91,2.3,17,.33A.2.2,0,0,0,16.9,0a.21.21,0,0,0-.3.09l-1.08,2a7.55,7.55,0,0,0-6,0L8.4.12A.21.21,0,0,0,8.1,0,.2.2,0,0,0,8,.33l1.07,2A6.6,6.6,0,0,0,6.51,4.6a5.78,5.78,0,0,0-1,3.24h13.9a5.85,5.85,0,0,0-1-3.24A6.64,6.64,0,0,0,15.91,2.3ZM9.74,5.16a.58.58,0,0,1-.82,0,.56.56,0,0,1-.16-.41.6.6,0,0,1,.16-.42.58.58,0,0,1,.82,0,.58.58,0,0,1,.18.42A.54.54,0,0,1,9.74,5.16Zm6.34,0a.58.58,0,0,1-.82,0,.54.54,0,0,1-.18-.41.58.58,0,0,1,.18-.42.58.58,0,0,1,.82,0,.6.6,0,0,1,.16.42A.56.56,0,0,1,16.08,5.16Z" transform="translate(-1.92 0)"/><path class="cls-3" d="M5.6,18.39a1.59,1.59,0,0,0,.48,1.17A1.63,1.63,0,0,0,7.26,20H8.37v3.41A1.54,1.54,0,0,0,9.92,25,1.48,1.48,0,0,0,11,24.55a1.5,1.5,0,0,0,.45-1.1V20h2.08v3.41a1.5,1.5,0,0,0,.45,1.1,1.48,1.48,0,0,0,1.09.45,1.54,1.54,0,0,0,1.55-1.55V20h1.13a1.66,1.66,0,0,0,1.64-1.65v-10H5.6Z" transform="translate(-1.92 0)"/><path class="cls-3" d="M21.53,8.1a1.5,1.5,0,0,0-1.08.44A1.48,1.48,0,0,0,20,9.63v6.46a1.5,1.5,0,0,0,.45,1.1,1.47,1.47,0,0,0,1.08.45,1.54,1.54,0,0,0,1.55-1.55V9.63a1.48,1.48,0,0,0-.45-1.09A1.53,1.53,0,0,0,21.53,8.1Z" transform="translate(-1.92 0)"/></g><circle class="cls-3" cx="7.37" cy="4.7" r="1.28"/><circle class="cls-3" cx="13.54" cy="4.88" r="1.28"/><circle cx="7.7" cy="4.88" r="1.21"/><circle cx="13.13" cy="4.88" r="1.21"/></g></g></svg>